<?xml version="1.0" encoding="UTF-8"?>
<svg version="1.1" viewBox="0 0 1600 1600" width="100" height="100" xmlns="http://www.w3.org/2000/svg">
<path transform="translate(353)" d="m0 0h893l1 3 17 10 13 10 13 13 10 14 8 16 3 14 1 332-2 2-32 1h-29l-1-2-1-24-2-276-1-26-3-12-6-8-18-2-37-1-264-1h-144l-338 1-45 1-20 2-8 4-5 10-2 10-1 9-1 102v1300l2 15 5 10 4 3 11 2 11 1 37 1h755l35-1 16-2 8-4 4-5 3-6 2-14 1-215 1-83 1-20 1-1h57l5 3 1 3v96l-1 179-1 44-2 20-3 11-8 16-8 11-10 10-10 7-22 11-6 4h-2v2h-882l-5-5-14-8-20-14-12-12-9-14-6-16-2-21-1-27-1-65v-1295l1-42 2-13 4-11 6-11 9-12 11-11 17-12 14-9z" fill="#FCFCFC"/>
<path transform="translate(1272,479)" d="m0 0h16l29 2 30 4 25 6 22 8 24 11 19 10 21 13 19 14 13 11 8 7 18 18 7 8 12 15 12 18 15 26 14 30 8 21 8 27 6 23 2-1v101l-1 3h-2v2l2-1 1 7v11l-3-1-2-6-2-1-2 11-7 25-8 21-16 32-11 17-10 15-14 19-13 15-18 18-25 20-14 9-18 11-23 12-19 8-26 8-24 6-15 3-25 3-19 1h-26l-26-2-24-4-22-6-20-7-20-8-24-12-23-14-15-11-13-10-15-14-18-18-9-11-10-13-13-19-10-18-8-16-9-20-7-19-6-21-5-24-3-27v-52l3-27 6-29 11-33 8-18 11-22 8-13 7-11 12-17 9-11 13-15 16-16 22-18 17-12 15-9 22-12 17-8 27-10 24-6 35-5zm-18 66-24 3-31 8-22 8-16 8-20 12-11 8-9 7-10 9-8 7-15 15-11 14-9 12-15 25-9 19-6 15-7 25-4 21-3 25v34l4 28 6 26 8 24 8 17 11 19 10 14 11 14 12 13 6 7 8 7 13 11 27 18 33 17 24 9 22 6 19 3 10 1h43l23-3 29-6 25-9 19-9 24-14 16-11 10-8 13-11 2-4h2v-2h2l7-8 10-12 8-11 9-15 9-16 10-22 7-22 4-16 4-22 2-22v-21l-2-25-4-24-8-27-8-20-12-24-10-16-10-14-12-14-18-18-17-13-14-10-15-9-19-10-20-8-20-6-24-5-22-2z" fill="#fff"/>
<path transform="translate(1249,639)" d="m0 0h20l34 1 8 3 1 2v49l-1 72 124 1 4 2 1 2v54l-2 4-2 1-24 1-101 1 1 123-2 3-4 1h-56l-3-3v-124h-115l-11-1-2-3v-56l2-4 11-1h72l43-1v-121z" fill="#FAFAFA"/>
<path transform="translate(1599,723)" d="m0 0h1v6l-3-1-1-3z" fill="#fff"/>
<path transform="translate(1252)" d="m0 0h7l-1 2-6-1z" fill="#fff"/>
<path transform="translate(1240,1599)" d="m0 0h8v1h-8z" fill="#fff"/>
<path transform="translate(346,1598)" d="m0 0h4v2h-4z" fill="#fff"/>
<path transform="translate(1598,874)" d="m0 0h2l-1 4z" fill="#fff"/>
<path transform="translate(1257,1595)" d="m0 0h4v2z" fill="#fff"/>
<path transform="translate(353,1598)" d="m0 0 3 2h-3z" fill="#fff"/>
<path transform="translate(1247)" d="m0 0 1 2-2-1z" fill="#fff"/>
<path transform="translate(351,1599)" d="m0 0" fill="#fff"/>
<path transform="translate(1599,730)" d="m0 0" fill="#fff"/>
<path transform="translate(1249)" d="m0 0" fill="#fff"/>
<path transform="translate(351)" d="m0 0" fill="#fff"/>
</svg>
