<?xml version="1.0" encoding="UTF-8"?>
<svg version="1.1" viewBox="0 0 1600 1600" width="100" height="100" xmlns="http://www.w3.org/2000/svg">
<path transform="translate(121,287)" d="m0 0h1358l28 1 20 2 12 3 16 8 13 11 10 11 14 21 6 11v2h2v887l-3 1-11 19-10 14-13 13-13 8-11 5-11 3-16 2-23 1-161 1h-112l-31-1-3-3v-28l1-27 1-4 2-1 307-1 17-1 9-2 5-3 5-8 3-12 1-10v-801l-1-32-3-15-4-7-12-2-23-1-63-1-631-1-597 1-98 1-20 1-6 2-6 12-2 9-1 14-1 39-1 198v499l1 83 2 18 4 12 5 4 14 2 20 1 302 1 4 2v57l-4 4h-320l-16-1-17-4-15-8-11-9-8-8-7-10-8-12-7-9-3-4v-889h2l2-6 12-20 9-11 5-5h2v-2l14-11 14-8 10-3 21-2z" fill="#FAFAFA"/>
<path transform="translate(787,959)" d="m0 0h25l25 2 30 4 24 6 25 9 26 12 25 14 22 15 16 13 10 8 25 25 9 11 13 17 13 21 12 22 9 19 8 21 7 24 5 28 2 18 1 17v24l-2 31-2 18-6 26-6 20-8 21-13 27-12 19-8 12-13 18-11 12-7 8-16 16-9 7-12 10-15 10-21 13-23 12-20 9-33 11-28 7-9 1 1 3h-99l3-1v-2l-4 1h-2-2v-3l-7-1-15-4-35-12-19-8-21-10-24-14-19-14-11-9-12-11-19-19-9-11-13-17-10-15-12-21-12-25-8-20-6-19-6-26-3-19-1-12v-57l2-20 4-23 6-21 9-26 12-25 11-20 12-19 14-19 12-14 9-10 13-13 11-9 12-10 24-16 21-12 22-11 30-11 25-6 26-4zm-13 66-24 3-28 7-20 7-18 8-20 12-14 10-9 7-10 9-8 7-11 11v2l-4 2-11 14-9 12-12 20-5 9-9 19-8 24-6 26-4 33v33l4 28 6 26 7 21 14 29 10 16 13 17 12 14 19 19 11 9 14 10 16 10 28 15 24 9 23 6 25 4 11 1h37l23-3 30-6 20-7 18-8 20-11 22-14 13-10 14-12 16-17 12-16 10-15 10-18 12-26 6-19 5-22 3-17 2-25v-16l-2-27-4-25-6-20-7-20-11-23-13-22-10-14-13-15-17-17-14-11-18-13-22-13-19-9-22-8-24-6-18-3-13-1zm-23 573v1h6v-1z" fill="#fff"/>
<path transform="translate(770,1119)" d="m0 0h18l34 1 9 3 1 2v48l-1 73 123 1 5 3 1 2v53l-2 4-2 1-19 1-106 1 1 123-2 3-4 1h-56l-3-3v-124h-115l-11-1-2-3v-56l2-4 7-1h76l41-1 2-1v-120l1-5z" fill="#FAFAFA"/>
<path transform="translate(1598,1252)" d="m0 0h2l-1 4-3-1z" fill="#fff"/>
<path transform="translate(846,1598)" d="m0 0 2 1z" fill="#fff"/>
<path transform="translate(1599,1247)" d="m0 0" fill="#fff"/>
</svg>
