<?xml version="1.0" encoding="UTF-8"?>
<svg version="1.1" viewBox="0 0 1600 1600" width="100" height="100" xmlns="http://www.w3.org/2000/svg">
<path transform="translate(632,63)" d="m0 0h10l13 5 15 10 18 14 13 11 13 10 9 8 14 11 12 10 11 9 16 13 14 11 13 11 9 4 7-2 11-6 15-7 21-9 28-13 25-11 21-9 23-10 21-9 26-11 5-2h13l16 8 18 13 19 13 16 12 17 12 18 13 17 12 18 13 16 11 17 12 12 9 18 13 15 10 9 2 58 1 28 1 17 2 8 3 7 7 2 12 1 13v123l-1 13-3 6-10 6-20 7-4 4-2 16-6 29-7 42-12 60-8 44-5 23-10 58-6 28-7 41-9 44-11 62-6 31-9 50-6 27-9 52-7 32-7 42-7 37-5 25-8 44-5 22-7 44-7 34-7 27-8 18-9 16-9 12-9 10-5 5-14 13-15 10-15 7-20 7-14 3-32 3-26 1-357 1-45-1-24-2-21-4-18-6-17-8-12-8-13-11-15-15-11-15-13-23-8-19-7-23-6-29-7-41-14-74-11-59-14-75-10-53-15-77-15-80-18-98-22-118-12-64-11-59-7-43-3-17-23-7-8-5-5-9-2-6-1-57v-71l2-18 4-10 7-8 5-2 6-1 18-1 125-1 8-2 10-9 11-9 13-11 10-8 17-14 11-9 13-11 10-8 13-11 11-9 11-10 10-8 13-11 25-20 14-11 13-11 17-13zm6 76-7 4-15 13-11 9-11 10-8 7-16 13-17 13-15 13-12 10-16 12-10 9v1l5 1 21 1h239l17-2-2-4-19-13-10-8-28-24-11-9-17-14-14-11-17-14-11-9-10-8zm378 19-16 7-35 16-27 12-50 22-29 12-2 1 1 4 9 8 11 8 6 4 8 2 9 1h244l8-1-2-4-15-10-13-9-19-14-12-9-13-9-18-13-12-9-19-14-8-5zm-725 160-3 1-1 4-1 47 1 11 2 1 12 1h1007l3-1 1-7v-55l-4-1h-584zm313 128-12 3-10 7-13 12-5 4-6 7-2 1v2h-2v2h-2l-7 8-20 20-7 8-6 6v2l-4 2v2l-4 2-8 9 1 4 9 9 8 7 56 56h2v2l7 6 3 4h2l2 4h2l2 4 21 21 6 7 7 4 4-2 5-4 9-11 4-3v-2h2l7-8 5-4v-2l4-2 7-8 49-49 2-1v-2l4-2 14-14 8-7 5-6-5-5-6-7h-2l-2-4-9-9-7-8-24-24-6-7-8-7-9-9-14-11-11-5-13-2zm149 0v4l12 14 7 8 10 9 12 12 4 3 5-1 9-8 7-8 25-25 3-6-1-1zm205 0-11 2-11 6-16 15-5 5-7 6v2h-2v2h-2l-7 8-21 21-7 8-17 17-4 5 1 5 13 12 8 7 51 51 8 7 4 5 5 5h2l2 4 19 19 1 2h2l2 4 8 6 4 1 7-6 9-11 80-80 2-1v-2l4-2 14-14 8-7 2-5-17-17-7-8-12-13-19-19-5-6-8-7-9-9-13-10-10-5-7-2-11-1zm146 0 2 5 11 13 5 6h2v2l8 7 8 8 5 6 4 3 6-1 7-6 7-8 28-28 3-6h-37zm-704 1-1 2 7 8 14 15 8 7 6 5 7 8 6 4 5-1 8-8 7-8 22-22 5-6 1-4zm-69 28 5 26 7 38 8 49 1 2 5-2 9-7v-2h2v-2h2v-2l3-1 7-8 10-10 8-7 3-4-2-4-21-21-7-8-9-9-6-7-8-7-9-9-7-5zm930 5-10 9-19 19v2h-2l-7 8-23 23v6l9 9 6 5 12 12 7 8 7 7 4 3h2l5-32 5-28 7-41 1-10zm-815 111-9 7v2l-4 2-60 60-3 5-1 5 2 14 11 64 5 23 5 16 6 11 9 10 18 18 8 7 12 12 5 2 8-8v-2h2l7-8 29-29 6-7 40-40 6-5v-2l4-2 15-15 5-4 5-7-2-4-6-5-7-8-23-23-7-8-56-56h-2l-2-4-7-6-7-8-7-6zm703 1-7 5-7 8-17 16-1 3-4 2-7 8-74 74-8 10 1 7 13 12 26 26 7 6 31 31h2l2 4h2l1 3 8 7 11 12 4 2 2 4 12 12 8 5 13-12 9-10 17-17 7-9 6-10 6-19 5-28 8-43 6-25-1-7-7-9-9-10-18-18h-2l-2-4-29-27-5-5-6-4zm-351 0-6 4v2l-4 2v2h-2l-6 7-8 7-12 12v2h-2l-7 8-58 58-7 8-12 12-2 3 1 5 7 7 8 7 10 10h2l2 4h2l2 4 12 12h2l2 4h2l2 4 8 7 7 8 8 7 16 16 7 8 11 11 7 8 8 6 4 1 6-5v-2h2l7-8v-2l4-2v-2l4-2 4-4v-2l4-2 8-8 7-8 46-46 6-5v-2l4-2 14-14 6-5 5-7-2-4-6-5-2-3h-2l-2-4-25-25-7-8-6-5-1-2h-2l-2-4-20-20-8-7-25-25-7-6-5-6-8-4zm-176 175-10 8-31 31-7 8-54 54v2h-2l-7 8-11 10-4 5 1 7 40 40 6 5 5 6 8 7 18 18h2l2 4h2l2 4 4 4h2l2 4 9 10 7 6 7 8 7 6 7 1 14-14 4-5 8-7 12-12 7-8 46-46 2-1v-2l4-2 18-18 8-7 3-4-1-4-37-37-7-8-48-48-8-7-17-17-4-5-8-4zm352 0-10 8-31 31v2h-2l-7 8-62 62v2h-2v2h-2v2h-2l-9 11 2 6 15 14 17 16 45 45h2l2 4h2l2 4h2l1 3 5 5 8 9 7 6 7 8 8 7 6 2 15-15 4-5 8-7 12-12 7-8 46-46 8-7 16-16 8-7 4-6-41-41-5-6-7-6-1-2h-2l-2-4-8-8h-2l-2-4-11-11-8-7-36-36zm-531 176-8 7-7 9-2 4v10l5 34 13 71 9 48 7 36 4 16 2 5 6-3 7-6 9-11 6-6v-2h2l6-7 26-26 5-6 3-2v-2l4-2v-2l4-2v-2l4-2 20-20 2-1v-2h2l5-7-1-4-8-7-27-27-7-8-22-22h-2l-2-4-8-8-8-7-18-18-7-8-5-4-5-6-8-5zm355 0-5 3-36 36-7 8-62 62-7 8-7 7-2 3 1 7 15 14 12 11 29 29 7 6 2 3h2l2 4h2v2l8 7 13 13 7 9 8 7 9 10 8 7 5 1 14-14 6-7 6-5 6-7 3-2v-2l3-1 7-8 47-47 2-1v-2l4-2 18-18 8-7 3-4-1-4-5-5h-2l-2-4-28-28-7-8-48-48-8-7-22-22-4-3zm354 1-8 4-13 13-2 1v2l-4 2-4 4v2l-4 2v2l-4 2v2h-2l-7 8-43 43-4 3v2h-2v2h-2v2l-4 2v2l-4 2-7 8-11 11-4 6 1 5 17 16 24 24 8 7 9 9 5 4 7 8 9 8 9 11 15 16 5 4h2l2-9 3-21 9-46 13-72 6-28 6-32v-10l-6-12-7-8zm-530 175-9 7-35 35-7 8-45 45v2l-4 2-7 7-4 7 3 5 17 16 28 28 7 8 8 7 7 8 13 12 5 5 15 16 9 9 7 8 9 7 4-2 13-13 5-6 4-3v-2l3-1 6-7 6-5 7-8 17-17v-2l4-2 10-10 8-7 16-16 8-7 3-4-1-4-37-37-7-8-48-48-8-7-17-17-4-5-8-4zm352 0-6 4-37 37-7 8-68 68-9 11 1 5 17 16 32 32 8 7 26 26 5 6 5 5 7 8h2v2l9 7 4-2 13-13 5-6 8-7 32-32v-2l3-1 7-8 19-19 8-7 12-12 2-1v-2l4-2 6-5v-2l4-2 4-7-6-7-8-7-7-7-7-8-8-7-7-8-22-22-8-7-30-30-4-5-8-4zm-178 176-8 7-4 4v2l-4 2-20 20-7 8-12 12-7 8-26 26-11 9-6 5v2l-3 1-1 4 14 2h202l7-2-2-5h-2l-2-4-15-14-16-16-7-8-22-22h-2l-2-4-15-14-22-22zm-310 9 1 8 5 21 6 15 9 16 9 12 7 7 14 10 21 10 10 3 15 1 7-2-1-5-11-11-10-8-9-9h-2l-2-4-20-20-7-8-15-16-8-8-9-7-7-4-2 1zm620 3-10 8-61 61-11 9-9 7-9 11v1l13 2h9l12-3 16-8 15-8 13-12 7-8 10-18 8-24 1-4v-14z" fill="#FEFEFE"/>
<path transform="translate(500,1320)" d="m0 0 3 3-3-1z" fill="#fff"/>
<path transform="translate(514,1328)" d="m0 0 2 1z" fill="#fff"/>
<path transform="translate(510,1324)" d="m0 0 2 1z" fill="#fff"/>
<path transform="translate(506,1320)" d="m0 0 2 1z" fill="#fff"/>
<path transform="translate(504,1325)" d="m0 0" fill="#fff"/>
<path transform="translate(504,1320)" d="m0 0" fill="#fff"/>
<path transform="translate(492,1308)" d="m0 0" fill="#fff"/>
<path transform="translate(488,1307)" d="m0 0" fill="#fff"/>
</svg>
