<?xml version="1.0" encoding="UTF-8"?>
<svg version="1.1" viewBox="0 0 1600 1600" width="100" height="100" xmlns="http://www.w3.org/2000/svg">
<path transform="translate(972,560)" d="m0 0h31l26 3 21 5 16 6 16 8 10 6 14 11 10 10 13 17 9 16 5 11 5 17 2 12 1 11 1 65v262l-5 2-62 1h-48l-4-3-1-296-4-16-7-14-9-11-14-10-16-7-19-4-12-1h-10l-18 2-11 3-9 4-7 4h-2v2l-8 7-9 11-8 15-5 15-3 17-1 11-1 44-1 224-4 2-33 1h-79l-2-4-1-284-2-15-4-16-6-12-7-9-7-7-13-8-11-4-18-3h-20l-17 3-15 5-11 6-11 9-10 10-10 13-5 11-3 11-1 9-1 22-1 73-1 126v61l-4 2-41 1h-71l-2-3-1-17-1-248v-73l1-71 1-31 2-5h112l4 3 1 5-1 19-1 27 7-4 13-11 8-8 14-11 13-9 16-10 19-9 17-4 9-1h51l19 2 16 3 18 6 16 9 12 9 15 15 11 17 3 4 5-1 8-7 10-9 12-9 19-14 13-8 15-8 17-6 22-4z" fill="#FEFEFE"/>
<path transform="translate(1343,160)" d="m0 0h94l15 2 9 3 7 6 2 8 1 14v1100l-1 130-3 5-6 5-13 4-12 1h-77l-26-1-10-2-5-6-5-12v-16l4-12 6-8 4-3 3-1 77-1v-60l-1-488v-599l-1-6h-27l-40-1-13-2-5-3-5-9-2-5-1-6v-9l3-12 3-6 5-5 5-3z" fill="#FDFDFD"/>
<path transform="translate(164,160)" d="m0 0h83l21 2 10 4 6 7 1 5v15l-1 11-4 10-5 5-8 2-9 1-67 1 1 5-1 1147h23l46 2 16 2 6 5 2 7v26l-4 13-5 5-5 2-5 1h-97l-18-1-11-2-5-5-4-9-1-5-1-17-1-100v-1084l1-32 2-8 4-7 8-5 9-2z" fill="#FBFBFB"/>
</svg>
