<?xml version="1.0" encoding="UTF-8"?>
<svg version="1.1" viewBox="0 0 1600 1600" width="100" height="100" xmlns="http://www.w3.org/2000/svg">
<path transform="translate(683,31)" d="m0 0h288l28 1 11 1 11 4 11 7 6 5 7 11 5 11 6 21 1 2 7 1h246l21 2 13 3 16 8 11 8 10 9 10 13 8 13 5 12 2 9 1 10v1174l-1 56-3 24-5 13-4 8-10 14-13 13-10 6-13 6-12 3-18 2-22 1-134 1h-850l-36-1-16-2-12-4-13-7-10-9-7-6v-2h-2l-11-15-8-17-3-13-2-20-1-75v-1114l1-38 2-13 3-10 7-14 12-16 10-10 14-10 11-6 16-4 10-1 24-1h243l4-24 8-16 6-8 8-7 10-5 11-2 31-1zm-74 64-1 1-1 75v116l374 1 10-1v-185l-1-7zm-275 64-49 1-14 2-7 6-4 7-3 12-1 11-1 134v1062l1 19 3 12 5 8 9 4 8 1 32 1 998-1 12-1 9-4 4-5 3-6 2-12 1-11v-1205l-1-15-3-9-5-6-7-3-13-1-54-1h-203l-1 1v62l2 1h176l45 1 1 1v1147l-5 2h-288l-588 1h-75l-3-1-1-10v-913l1-228h222l1-1v-62l-3-1zm55 127-6 1-1 1025h818l13-1 2-1v-1022l-1-1h-158l-2 3-4 24-6 11-8 10-14 10-7 3-9 1-62 1h-280l-66-1-16-2-14-7-10-9-8-15-4-15-2-12-1-2z" fill="#FBFBFB"/>
<path transform="translate(812,798)" d="m0 0h137l137 1 1 1v61l-3 2h-571l-2-2v-59l2-3z" fill="#F9F9F9"/>
<path transform="translate(919,606)" d="m0 0h47l120 1 1 1v61l-3 2h-571l-2-2-1-13v-15l1-29 1-4 2-1z" fill="#FAFAFA"/>
<path transform="translate(777,990)" d="m0 0h199l110 1 1 1v61l-1 1-291 1h-278l-5-2-1-2v-56l2-4z" fill="#FAFAFA"/>
</svg>
