<?xml version="1.0" encoding="UTF-8"?>
<svg version="1.1" viewBox="0 0 1600 1600" width="100" height="100" xmlns="http://www.w3.org/2000/svg">
<path transform="translate(353)" d="m0 0h893l1 3 17 10 13 10 13 13 10 14 8 16 3 14 1 332-2 2-32 1h-29l-1-2-1-24-2-277-1-25-3-12-6-8-18-2-37-1-278-1h-116l-352 1-45 1-20 2-8 4-5 10-2 10-1 9-1 102v1300l2 15 5 10 4 3 11 2 11 1 37 1h755l35-1 16-2 8-4 4-5 3-6 2-13 1-212 1-85 1-21 2-2h56l5 3 1 3v93l-1 183-1 43-2 20-3 11-8 16-8 11-10 10-10 7-22 11-6 4 7 1v1h-891l-5-5-14-8-20-14-12-12-9-14-6-16-2-21-1-27-1-65v-1295l1-42 2-13 4-11 6-11 9-12 11-11 17-12 14-9z" fill="#FCFCFC"/>
<path transform="translate(1269,479)" d="m0 0h22l35 3 26 4 23 6 21 8 20 9 19 10 21 13 13 9 16 13 7 5v2l4 2 20 20 9 11 13 16 11 18 9 15 8 15 9 20 8 20 9 30 4 13 2 10 2-1v123l-3-1-1-7h-3l-2 10-7 26-8 21-16 32-11 17-10 15-10 14-11 13-7 8-17 17-9 7-12 10-15 10-23 14-17 9-18 8-24 8-30 8-23 4-17 2-17 1h-31l-24-2-24-4-22-6-28-10-18-8-20-10-21-13-14-10-13-10-14-13-8-7v-2h-2l-7-8-9-10-13-17-13-19-10-18-8-16-10-22-10-30-6-26-3-21-1-12v-52l3-27 5-25 9-29 8-20 8-17 9-16 8-13 8-12 9-12 11-14 15-16 12-12 11-9 14-11 18-12 17-10 25-13 28-11 25-7 32-5 18-2zm-9 65-26 3-25 6-17 5-24 10-21 12-20 14-11 9-15 14-15 15-11 14-7 10-10 16-6 10-9 20-6 16-7 26-3 16-3 25v36l4 27 6 26 8 24 10 21 10 17 14 19 12 14 14 15 10 9 13 10 18 12 18 10 15 8 26 10 22 6 24 4 9 1h44l27-4 26-6 27-10 21-11 23-14 16-12 13-11 20-20 12-16 7-10 13-23 8-17 6-16 7-24 5-27 2-20v-26l-2-23-4-23-8-27-8-20-11-22-11-18-10-14-12-14-18-18-14-11-12-9-21-13-16-8-21-9-24-7-27-5-25-2zm336 307-1 9 2-3v-6z" fill="#fff"/>
<path transform="translate(1277,766)" d="m0 0h94l65 1 4 4v54l-3 5-6 1h-308l-4-3-1-4v-30l1-22 2-4 2-1z" fill="#F8F8F8"/>
<path transform="translate(1250,1183)" d="m0 0h56l5 3 1 3v93h-1l-1-92-5-5-55-1z" fill="#080707"/>
<path transform="translate(1597,724)" d="m0 0h3v5l-4-2z" fill="#fff"/>
<path transform="translate(1252)" d="m0 0h7l-1 2-6-1z" fill="#fff"/>
<path transform="translate(346,1598)" d="m0 0h4v2h-4z" fill="#fff"/>
<path transform="translate(1257,1595)" d="m0 0h4v2z" fill="#fff"/>
<path transform="translate(353,1598)" d="m0 0 3 2h-3z" fill="#fff"/>
<path transform="translate(1599,874)" d="m0 0v3z" fill="#fff"/>
<path transform="translate(1247)" d="m0 0 1 2-2-1z" fill="#fff"/>
<path transform="translate(351,1599)" d="m0 0" fill="#fff"/>
<path transform="translate(1249)" d="m0 0" fill="#fff"/>
<path transform="translate(351)" d="m0 0" fill="#fff"/>
</svg>
