<?xml version="1.0" encoding="UTF-8"?>
<svg version="1.1" viewBox="0 0 1600 1600" width="100" height="100" xmlns="http://www.w3.org/2000/svg">
<path transform="translate(121,287)" d="m0 0h1358l28 1 20 2 12 3 16 8 13 11 10 11 15 23 5 9v2h2v887l-3 1-11 19-10 14-13 13-13 8-11 5-11 3-16 2-23 1-158 1h-115l-31-1-3-3v-30l1-25 1-4 3-1 306-1 18-1 8-2 5-3 5-8 3-12 1-10v-801l-1-32-3-15-4-7-12-2-23-1-63-1-538-1h-209l-481 1-98 1-20 1-6 2-6 12-2 9-1 14-1 39-1 197v79l1 504 2 18 4 11 5 5 14 2 19 1 303 1 4 2v56l-2 4-2 1h-320l-22-2-13-4-13-7-10-8-9-9-7-10-8-12-7-9-3-4v-889h2l2-6 12-20 9-11 5-5h2v-2l14-11 14-8 10-3 21-2z" fill="#FAFAFA"/>
<path transform="translate(789,959)" d="m0 0h22l34 3 26 4 20 5 25 9 20 9 22 12 18 11 17 12 12 10 11 9 22 22 9 11 12 15 8 12 9 15 10 18 10 21 9 24 6 21 4 22 3 25 1 17v25l-2 30-3 22-6 25-10 30-16 34-12 19-8 12-13 18-11 12-7 8-16 16-9 7-12 10-15 10-28 17-31 15-25 9-24 7-17 4-1 3-3-2-2 3h-101l-4-2-5-3-24-7-34-12-18-8-16-8-22-12-18-13-14-11-13-12-6-5-7-8-7-7-9-11-15-20-12-19-14-27-12-28-7-22-7-30-3-26v-58l2-20 4-23 6-22 9-25 8-18 12-22 8-13 12-18 13-17 9-10 7-8 15-15 11-9 14-11 18-12 22-13 22-11 26-10 22-6 28-5 26-3zm-10 65-25 3-26 6-24 8-20 9-20 12-14 10-13 10-16 15-15 15-11 14-7 10-10 16-6 10-11 24-9 29-5 24-3 25v37l5 33 7 27 8 21 9 19 11 18 13 17 11 13 7 7 7 8 14 12 12 9 15 10 23 13 19 9 23 8 28 6 24 3 14 1h15l22-2 27-5 19-5 24-9 26-14 19-12 15-11 13-11 19-19 13-17 10-15 10-18 12-26 8-26 6-30 2-22v-24l-2-24-4-25-6-21-8-21-11-23-11-18-11-16-13-15-18-18-14-11-18-13-21-12-21-10-17-6-22-6-21-4-23-2zm-32 573v2h10v-1z" fill="#fff"/>
<path transform="translate(643,1247)" d="m0 0h312l4 2 1 3v40l-1 16-3 2-5 1h-308l-4-3-1-5v-30l1-21 2-4z" fill="#F9F9F9"/>
<path transform="translate(1598,1252)" d="m0 0h2l-1 4-3-1z" fill="#fff"/>
<path transform="translate(728,1599)" d="m0 0" fill="#fff"/>
<path transform="translate(857,1598)" d="m0 0" fill="#fff"/>
<path transform="translate(742,1598)" d="m0 0" fill="#fff"/>
<path transform="translate(1599,1247)" d="m0 0" fill="#fff"/>
</svg>
