<?xml version="1.0" encoding="UTF-8"?>
<svg version="1.1" viewBox="0 0 1600 1600" width="100" height="100" xmlns="http://www.w3.org/2000/svg">
<path transform="translate(274,127)" d="m0 0h906l12 4 8 6 10 9 172 172 6 5 6 7 2 1v2l4 2 54 54v2h2l11 14 3 5 2 12v113l-1 785-1 59-2 20-4 14-6 12-10 14-9 10-10 7-16 8-11 3-17 2-20 1-73 1h-973l-100-1-16-1-17-4-12-6-10-8-12-11-10-14-8-15-3-9-2-13-1-13-1-76v-1050l1-38 2-13 4-13 8-14 9-12 12-12 13-9 12-6 12-3 26-2zm108 63-91 1-52 1-27 1-9 2-6 7-4 14-1 12-1 147v948l1 56 3 14 5 8 6 3 13 2 25 1h138l1-1v-361l1-109 1-23 3-15 5-12 6-10 8-11 12-12 13-9 11-6 17-4 11-1 24-1 474-1h101l50 1 22 2 13 4 12 6 12 9 9 8 10 13 8 13 5 12 2 8 1 9 1 203v287l1 1h126l34-1 14-2 7-4 5-8 2-6 2-19 1-869v-62l-9-10-7-8-8-7-6-7-8-7-117-117-8-7-41-41-7-8-8-8-5-2v104l-1 249-1 20-3 18-4 10-4 8-8 12-9 10-1 3-4 2-10 7-15 7-13 3-24 2-52 1h-518l-49-1-15-2-12-4-13-7-14-12-9-10-9-14-6-14-3-16-1-12-1-35-1-71v-282zm67 1-2 1v376l1 15 4 12 6 7 9 3 8 1 22 1h353l237-1 11-1 9-4 5-5 3-5 2-9 1-9 1-150v-232zm210 703-148 1-37 1-12 2-7 6-4 8-2 6-1 9-1 101-1 309v66l1 4 50 1h637l17-1 1-1-1-310-1-163-1-16-4-13-6-6-13-2-28-1-188-1z" fill="#FBFBFB"/>
<path transform="translate(932,256)" d="m0 0h85l21 2 7 3 7 6 2 12 1 41v184l-1 20-2 7-7 6-13 5h-100l-21-2-5-2-6-7-3-7-1-7-1-24-1-83v-47l1-72 2-15 4-10 8-7 6-2zm34 62-7 2-1 6v154h19l14-1 1-1v-152l-2-6-8-2z" fill="#FEFEFE"/>
<path transform="translate(257,1280)" d="m0 0h56l5 3 1 3v54l-3 2-5 1h-47l-8-2-2-5 1-43z" fill="#F7F6F6"/>
<path transform="translate(1281,1280)" d="m0 0h57l5 4v56l-8 3h-48l-7-2-1-1v-51l1-8z" fill="#F7F7F7"/>
</svg>
