<?xml version="1.0" encoding="UTF-8"?>
<svg version="1.1" viewBox="0 0 2048 2048" width="512" height="512" xmlns="http://www.w3.org/2000/svg">
<path transform="translate(1015,63)" d="m0 0h18l25 2 22 4 22 6 22 8 19 9 22 13 12 9 14 11 16 15 51 51v2h2l7 8 114 114v2l3 1 6 7 8 7 8 8v2l3-1 10-37 10-35 7-19 8-14 8-11 12-13 10-9 15-10 19-9 14-4 17-3 32-1h78l27 1 19 3 18 6 16 8 13 9 10 8 7 8 8 9 9 14 9 19 5 17 2 14 1 23v415l3 4v2l4 2 26 26v2h2l7 8 77 77v2l4 2v2l4 2 6 7 42 42 10 14 5 14 1 4v23l-4 13-7 13-11 12-12 8-14 5-14 2h-129v683l-1 47-2 19-4 21-7 24-6 16-6 13-8 16-9 14-10 14-8 10-9 10-10 11-8 7-13 11-24 16-14 8-22 10-30 10-24 5-15 2-13 1h-1054l-22-2-25-5-23-7-24-10-19-10-21-14-10-8-14-12-18-18-9-11-14-19-15-26-10-23-8-24-5-22-3-23-1-16v-718h-132l-16-3-16-8-12-11-7-10-6-13-2-8-1-14 2-13 5-14 7-10 7-9h2v-2h2v-2h2l2-4 97-97 6-7 4-4h2l2-4 94-94 1-2h2l2-4h2l2-4h2l2-4 118-118 5-6 6-5 7-8 85-85 5-6 4-4h2v-2h2l2-4 103-103 5-6 93-93 1-2h2v-2h2l2-4h2l2-4h2l2-4 91-91 11-9 13-10 19-12 21-11 22-9 25-7 25-5zm8 129-22 2-19 5-16 7-12 7-14 11-82 82v2h-2v2h-2v2h-2v2h-2v2h-2v2h-2l-7 8-95 95-5 6-111 111v2l-4 2v2l-4 2v2l-4 2v2l-4 2v2h-2l-7 8-102 102v2l-4 2v2l-4 2v2l-3 1-7 8-87 87v2l-4 2v2h-2v2h-2v2h-2l-7 8-96 96v1l45 1 16 4 14 8 11 10 9 14 4 12 1 6 1 22v755l1 21 4 22 7 19 8 15 9 12 11 12 10 9 15 10 17 8 17 5 18 3 169 1 1-1 1-517 2-22 4-20 5-16 6-15 8-16 10-16 13-16 11-12 10-9 15-11 18-11 17-8 24-8 20-4 28-2h318l31 2 17 3 17 5 19 8 16 8 15 10 14 11 4 4h2v2l7 6 7 8 13 17 10 17 10 21 7 22 4 22 1 10 1 22v197l-1 63-3 11-4 9-6 10-9 9-11 7-12 5-10 2h-18l-12-3-12-6-10-8-9-10-8-16-2-9-1-11-1-265-4-15-7-13-9-10-10-8-11-5-11-3-9-1h-322l-17 2-15 6-10 8-9 9-8 14-4 16-1 38v482l7 1 740-1 15-2 16-5 13-5 14-8 12-9 12-11 10-12 8-13 7-14 6-19 3-20 1-789 2-13 5-13 7-11 10-10 11-7 10-4 11-2 44-1-1-3h-2v-2l-68-68-1-2h-2l-2-4h-2l-2-4-8-9-8-14-3-12-1-10-1-453h-110l-7 24-13 48-18 65-12 43-7 16-9 12-10 8-15 7-14 3h-16l-15-4-11-6-11-9-39-39-5-6h-2l-2-4h-2l-2-4h-2l-2-4-110-110-5-6h-2l-2-4h-2l-2-4h-2l-2-4-73-73-6-7-20-20-11-9-10-7-14-8-16-6-16-4z" fill="#FDFDFD"/>
</svg>
