<?xml version="1.0" encoding="UTF-8"?>
<svg version="1.1" viewBox="0 0 1600 1600" width="100" height="100" xmlns="http://www.w3.org/2000/svg">
<path transform="translate(1152,127)" d="m0 0h277l21 2 11 4 7 6 2 8 1 17v1250l-1 36-2 7-2 3h-2l-2 4-11 5-5 1-77 1h-38l-57-1-11-2-6-4-7-10-2-6v-13l3-10 5-8 8-7 2-1 12-1 124-1 5-1-1-77v-1081l1-57h-352l-15-2-6-4-6-7-4-11v-11l4-13 6-8h2v-2l8-4 33-1z" fill="#FCFCFC"/>
<path transform="translate(145,1026)" d="m0 0h20l14 4 9 5 2 3 1 10v360l21-1h793l20 1 11 2 7 3 8 8 3 10v11l-2 10-6 10-8 6-7 2h-877l-13-2-5-3-5-10-2-8-1-13-1-69v-257l1-64 3-9 7-6z" fill="#FBFBFB"/>
<path transform="translate(253,127)" d="m0 0h394l28 1 10 2 8 4 7 8 1 3v22l-3 10-6 9-2 2-8 2-91 1h-400v489l-1 34-2 9-6 6-12 3-8 1h-11l-12-3-5-5-4-8-2-14-1-85v-441l1-23 2-9 5-9 7-5 12-2 23-1z" fill="#FBFBFB"/>
<path transform="translate(1150,1058)" d="m0 0 3 1 8 18 13 38 16 43 11 28 4 7 12 6 75 28 24 9 16 5 6 3 2 5-4 3-45 15-23 9-20 7-29 11-12 5-7 15-12 29-7 19-7 20-9 23-11 33-3-1-9-19-10-28-8-22-12-32-13-32-5-6-20-8-20-7-29-11-47-17-13-5v-4l4-3 25-9 24-9 25-9 33-13 19-9 5-5 6-13 6-17 6-15 15-41 10-28 6-16z" fill="#fff"/>
<path transform="translate(862,164)" d="m0 0 4 2 6 12 13 38 14 38 15 38 6 7 20 8 17 7 20 7 52 19 16 5 5 4 1 3-3 4-16 5-36 12-17 7-23 8-23 9-12 5-3 3-12 28-11 28-9 25-9 23-7 22-4 9-3-1-8-16-8-20-13-36-10-27-9-22-4-10-5-6-16-6-19-7-31-12-36-13-24-9-5-2 1-4 12-5 25-9 43-15 25-10 26-12 5-5 7-16 8-21 16-44 9-24 7-20z" fill="#fff"/>
<path transform="translate(350,706)" d="m0 0 4 2 10 26 11 32 15 40 14 35 4 2 20 8 40 15 30 11 13 5 21 7 6 4-1 5-8 4-29 9-28 11-31 11-20 8-12 5-3 3-17 40-8 21-6 17-6 14-12 36-4 8h-2l-10-21-16-46-11-29-11-27-4-10-5-5-21-9-59-22-24-9-23-8-5-2 5-5 49-18 28-10 29-12 23-11 5-6 6-13 6-17 6-15 14-39 7-20 6-17z" fill="#fff"/>
</svg>
