<?xml version="1.0" encoding="UTF-8"?>
<svg version="1.1" viewBox="0 0 2000 2000" width="500" height="500" xmlns="http://www.w3.org/2000/svg">
<path transform="translate(1019,324)" d="m0 0h98l233 1 15 2 20 6 17 8 12 8 10 8 12 11 9 10 12 17 8 15 5 15 2 11 1 12 1 35v102l1 73v181l-1 193-2 19-7 24-10 21-11 16-8 10-12 12-10 7-18 10-21 8-15 3-8 1-23 1h-577l-47-1-21-2-18-4-19-8-17-9-10-8-14-14-11-14-12-21-7-17-6-25-1-8v-504l1-69 2-18 5-21 8-20 10-17 13-16 11-11 13-10 15-9 11-5 15-5 9-2 11-1zm-141 47-1 1v62l16 8 6 4 7 7 6 12 4 9 1 1h52l3-7 4-11 8-10 9-6 14-5 3-1 1-63-1-1zm154 0-1 1v62l12 4 10 7 4 2 2 4 7 10 5 13h57l5-13 6-9 5-5 9-6 14-6 1-1-1-62zm159 0-2 1v61l17 9 9 7 6 8 9 18h54l4-13 6-10 5-5 6-5 12-5 7-2v-62l-1-1zm-497 1-26 9-13 8-11 9-7 7-8 13-7 15-6 25-2 11v4h45l3-9 6-11 6-7 12-7 12-4v-63zm28-1-2 1-1 58 2 4 16 8 6 5h2l2 4 6 8 7 16h55l3-9 5-10 9-10 8-5 15-6v-63zm624 1v62l16 8 9 7 7 11 5 13 1 1h38l5-1v-10l-4-19-5-16-8-16-9-11-10-10-11-7-13-6-18-6zm-648 83-6 3-7 11-1 7 3 5 5 5 5 3 5 1 8-3 6-5 3-6-2-9-4-7-7-4zm156 0-5 3-6 9-2 9 6 9 6 4 7 1 9-5 5-6 1-2v-8l-4-8-5-4-7-2zm156 0-6 3-7 11v8l4 6 6 5 5 2 6-1 8-6 3-4 1-3v-8l-4-8-4-3-7-2zm158 0-5 2-5 6-3 7v8l4 6 6 5 8 1 8-4 6-7 1-9-3-8-6-5-7-2zm153 1-6 5-6 12 1 5 6 8 8 4 6-1 6-4 5-5 1-3v-9l-4-8-8-4zm-706 38-1 4 1 23 1 123h43l3-8 5-10 8-9 8-5 16-6-1-69-15-5-9-7-7-9-6-13-3-9zm146 0-2 1-6 16-6 9-5 6-9 6-12 3-1 1-1 38v31l16 8 9 6 8 10 6 15 1 1h57l3-10 7-12 9-8 14-7 7-3-1-43-1-26-12-2-6-4-5-4-9-12-6-13-1-6zm155 0-3 11-7 13-8 9-9 6-13 3v69l16 8 8 6 8 9 8 17h55l3-9 6-12 5-5v-2l4-2 15-7 6-2v-24l-1-30-1-15-1-1-9-1-6-4-11-10-8-13-3-12-3-1-31-1zm156 1-4 11-6 12-8 9-9 6-12 3-1 4-1 18v47l16 8 8 6 8 9 5 11 3 6 56 1 3-7 8-16 7-7 16-8 7-2v-28l-1-42-12-2-7-4-9-9-6-9-4-10-2-7zm157 0-2 10-6 11-10 11-9 6-13 3v68l1 2 12 5 10 7 8 9 8 17 2 2h54l5-13 6-10 5-6 9-5 9-4 6-2v-63l-1-7-12-2-9-6-8-9-7-12-2-5-2-7zm156 0-7 17-8 11-9 8-8 3-7 2-1 5v64l15 7 9 7 8 9 8 17 4 1 38-1v-149l-1-1zm-686 130-8 4-5 9-1 9 5 8 7 4h6l11-6 3-4 1-3v-7l-4-8-5-4-6-2zm157 0-8 4-5 8-1 3v8l4 6 5 4 2 1h7l9-5 5-6 1-2v-8l-5-8-4-3zm156 1-7 2-6 8-2 4v8l4 6 6 5 7 1 10-5 5-5 1-3v-8l-3-8-7-4zm156 0-7 3-4 5-3 8 1 8 4 6 5 3 7 1 7-3 8-7 2-4-1-9-4-7-6-3zm154 1-5 3-5 8-1 9 3 6 5 5 5 2 7-1 6-4 6-7 1-2-1-9-4-6-4-3-4-1zm-708 39 1 31 1 116h42l2-1 2-9 6-10 6-7 10-6 14-4 1-1v-20l-1-48-13-3-9-7-7-8-8-16-2-7zm146 0-8 16-6 9-3 3v2l-4 2-10 6-8 1-1 1v68l7 3 9 4 8 6 7 8 9 17 5 1h49l2-2 4-11 7-10 8-7 8-4 12-3 1-4-1-65-1-1-11-1-9-6-9-10-8-14-3-9zm157 0-11 22-10 11-10 5-9 2-1 3v66l15 5 9 7 7 8 8 17 1 1h53l6-14 9-12 11-7 15-4v-39l-1-29-12-3-11-8-11-14-6-16-1-1zm156 0-2 1-5 13-9 13-9 8-9 4-7 2-1 7v60l12 5 13 9 9 12 5 12 1 1h56l5-12 8-11 8-7 8-4 12-3v-23l-1-46-11-2-8-5-5-4-10-14-4-9-2-7zm157 0-4 10-7 11-7 9-10 7-12 3-1 1v67l2 2 12 4 11 8 8 11 7 14h54l5-12 7-11 8-7 10-5 12-3-1-67-1-1-11-2-10-7-8-9-7-12-3-10-1-1zm173 0-19 1-6 15-11 15-12 7-9 2v69l9 3 8 4 10 9 6 10 5 11 2 1h39l2-1v-146zm-704 130-8 4-5 10v7l4 7 3 3 9 2 10-4 5-5 2-4-1-10-4-6-8-4zm156 0-7 4-5 8-1 8 3 6 6 5 3 1h7l9-5 4-6 1-6-4-10-5-4-3-1zm157 0-8 4-6 9-1 7 4 8 3 3 6 2 8-1 8-5 3-4 1-9-3-8-4-4-5-2zm158 0-8 3-5 6-2 6v8l3 5 4 4 6 2 6-1 6-3 5-5 2-3v-9l-4-8-7-4zm153 1-6 3-4 5-3 7 1 8 7 8 9 1 8-4 5-5 1-2v-13l-5-6-4-2zm-707 35-1 4 1 93 1 56h41l2-2 3-10 7-10 5-5 9-6 15-5-1-70-9-2-11-6-8-8-7-12-2-6-2-10zm182 1-37 1-8 16-7 10-7 8-10 5-9 2v71l12 5 11 7 9 11 9 16h52l3-2 4-11 8-11 11-8 8-3 9-3-1-70-9-1-11-7-8-8-7-11-4-11-2-6zm119 1-6 13-5 10-9 10-12 7-9 3v37l1 33 8 3 10 5 10 9 7 12 4 9h53l5-12 6-10 7-7 9-5 13-3 1-1v-22l-1-37-1-10-3-1-6-1-14-10-1-2h-2l-2-4-6-10-5-14-1-1zm206 0-50 1-5 11-5 10-9 10-9 6-14 6v68l13 5 12 9 7 9 9 16 1 1h53l4-8 6-11 6-7 10-7 16-5v-34l-1-37-10-1-10-7-7-7-8-13-4-13-2-2zm106 1-2 8-7 14-9 10-10 6-12 5v38l1 31 8 3 10 5 10 9 8 14 4 8h51l3-4 7-14 7-9 11-7 9-3 6-1v-49l-1-22-9-1-10-6-11-11-5-8-3-9-2-7zm183-1-26 1-2 2-4 10-6 11-9 10-12 6-8 3v59l1 11 12 4 9 6 7 7 8 14 3 7 29 1h13v-151l-1-1zm-713 134-7 4-5 8-1 8 3 6 5 4 2 1h11l8-5 4-6v-8l-3-6-5-4-5-2zm155 0-6 4-4 7-1 2v8l3 5 6 5h11l8-5 4-7v-7l-3-6-5-4-4-2zm157 0-8 4-6 9v9l4 6 5 4h11l8-4 4-5 1-3v-8l-4-8-7-4zm157 0-6 3-5 6-2 5v7l3 5 5 5 3 1h8l8-4 4-5 2-5-1-8-4-6-8-4zm158 0-8 3-4 5-3 7 1 9 4 6 4 2h10l8-5 4-5 1-8-3-8-5-4zm-712 39 2 21 4 21 5 12 6 11 8 10 13 13 13 8 18 8 10 3h5l1-64-1-1-10-2-10-6-5-5h-2l-2-4-6-10-2-5-1-8-5-2zm147 0-2 1-5 13-7 11-5 6-10 6-10 4-1 1-1 13-1 52 1 1h135l1-3-1-62-4-1-7-2-11-8-7-7-7-11-3-7-1-6-2-1zm156 0-2 2-6 16-7 10-9 8-11 5-5 2v64l1 1h132l1-2-1-18-1-41-1-3-10-3-10-7-8-8-7-11-5-14-2-1zm157 0-2 1-6 15-10 14-7 6-10 5-7 3-1 20v43l2 1h135v-64l-4-2-8-2-9-6-7-7-9-14-2-5-2-7-1-1zm157 0-5 12-6 11-10 11-10 6-10 3v64l2 1h132v-65l-11-3-11-7-7-7-7-11-3-8-2-7zm155 0-5 12-5 10-8 10-13 8-9 3v58l1 6 8-1 16-7 16-9 11-9 7-7 9-14 7-16 4-13 2-15v-16z" fill="#271D1A"/>
<path transform="translate(452,1323)" d="m0 0h8l3 5 5 15 11 27 21 56 11 29 2 10h2l4-16 11-30 12-31 13-36 9-27 3-2h46l1 1 1 66 2 72v64h-36l-1-1-1-56v-80h-2l-3 10-11 28-10 27-9 23-6 16-10 26-3 7h-22l-5-8-6-16-18-43-13-33-11-29-2-2-1 28-1 102-2 1h-33l-1-2v-27l1-124v-39l1-10z" fill="#281E1C"/>
<path transform="translate(1247,1323)" d="m0 0h27l14 4 12 7 10 8 6 5 8 11-1 5-13 11-8 6-5-3-7-8-6-5-11-5-10-2-13 1-12 5-10 9-5 9-2 6-1 8v56l2 14 4 9 8 9 10 6 13 5 11-1 11-4 11-7 5-6 3-4 5 1 10 7 11 8 2 4-5 5-14 13-14 9-15 6-10 2h-20l-14-3-13-5-10-6-12-12-7-10-8-19-3-17-1-9v-22l3-32 3-14 6-15 9-13 9-9 13-9 12-6z" fill="#251B18"/>
<path transform="translate(693,1376)" d="m0 0h10l15 2 12 4 11 7 7 8 6 12 4 16 1 64 2 29 1 8-2 1h-28l-2-2-1-15-15 10-12 6-11 2h-22l-9-2-11-7-7-7-6-12-1-4v-19l4-13 7-10 9-7 14-7 13-4 5-1h37l-3-12-4-6-7-6-9-2h-20l-12 3-10 6-4 1-3-9-7-12-4-4v-2l19-9 12-4zm4 84-12 3-6 3-5 4-4 7-1 5 3 8 5 6 9 4h13l11-4 8-6 4-7 1-4v-13l-5-4-9-2z" fill="#261D1A"/>
<path transform="translate(1390,1376)" d="m0 0h11l17 3 12 6 9 8 9 13 5 15 1 8 1 23 1 61 2 8v4l-15 1h-17l-1-1-2-15-11 7-12 6-9 3-6 1h-21l-10-3-11-8-8-11-3-5-1-4v-22l4-11 7-9 11-8 9-5 17-4 9-1h13l14 2h5l-2-13-4-8-6-5-9-3-5-1h-15l-15 3-15 7h-3l-7-13-5-5-2-3 9-6 22-10 18-4zm7 84-15 2-8 3-6 7-3 6 1 9 6 8 6 3 5 1h9l11-2 9-5 6-7 1-3v-17l-4-3-10-2z" fill="#261C19"/>
<path transform="translate(1038,1378)" d="m0 0h43l8 10 20 32 5-5 8-12 8-13 7-12 35 1 4 1-2 4-8 9-10 17-14 22-11 17-1 4v2l4 2 9 13 16 21 12 17 8 12 3 6h-43l-9-15-18-27-3-5-4 2-14 22-9 14-4 8-2 1-38 1-1-2 15-24 13-18 12-16 11-15-1-4-15-20-16-24-12-16-6-9z" fill="#271D1A"/>
<path transform="translate(788,1333)" d="m0 0 38 2v25l-1 18h37l1 1v20l-1 7-4 1-32 1v15l2 61 3 6 6 4 3 1h13l8-4 3-1 3 11 3 17-1 4-14 4-14 2h-13l-11-4-11-8-7-7-6-10-2-8-1-9-1-56v-18l-17 1-1-1v-29h17l-1-45z" fill="#29201D"/>
<path transform="translate(1603,1375)" d="m0 0 16 1 12 3 21 10 11 8-2 4-8 4-7 7-5 9-4-2-10-7-9-3h-20l-8 3-7 6-5 11-2 10v22l4 15 6 9 9 6 7 3h17l12-7 6-6 4 1 8 7 16 10v3l-12 7-13 9-15 7-9 2h-26l-10-3-10-5-10-8-7-8-8-16-4-14-2-11v-29l5-20 5-10 9-10 10-7 12-6 15-4z" fill="#241B18"/>
<path transform="translate(1477,1315)" d="m0 0 40 1v164l2 14 4 6 3 4 1 4v15l-1 2h-33l-7-4-5-10-2-10-1-12-1-106z" fill="#271D1A"/>
<path transform="translate(955,1376)" d="m0 0h18l2 1-3 30-7 2-14 2-7 3-8 6-7 11-2 5-2 18-2 71-1 1h-35l-1-1-1-96-1-42-1-7 1-1h38l-2 9-1 13h2l2-4 6-8 12-9 9-3z" fill="#271D1A"/>
<path transform="translate(989,1378)" d="m0 0h36l1 1 1 146-1 2h-25l-12-1-1-17v-130z" fill="#291F1C"/>
<path transform="translate(1006,1310)" d="m0 0h8l8 4 6 7 3 7 1 8-3 9-6 8-7 3h-15l-6-4-6-8-1-3v-13l4-8 9-8z" fill="#271D1A"/>
<path transform="translate(788,1333)" d="m0 0 38 2v1h-38l-1 3v-5z" fill="#FEFEFE"/>
<path transform="translate(1027,973)" d="m0 0 4 4 1 2v10l-4 4 1-5v-8z" fill="#FEFEFE"/>
<path transform="translate(1028,803)" d="m0 0 3 3 1 3v7l-3 5-1-2 1-9z" fill="#FEFEFE"/>
<path transform="translate(1340,803)" d="m0 0 3 3 1 2-1 9-2 1z" fill="#FEFEFE"/>
</svg>
