<?xml version="1.0" encoding="UTF-8"?>
<!DOCTYPE svg PUBLIC "-//W3C//DTD SVG 1.1//EN" "http://www.w3.org/Graphics/SVG/1.1/DTD/svg11.dtd">
<svg xmlns="http://www.w3.org/2000/svg" version="1.1" width="1024px" height="1024px" style="shape-rendering:geometricPrecision; text-rendering:geometricPrecision; image-rendering:optimizeQuality; fill-rule:evenodd; clip-rule:evenodd" xmlns:xlink="http://www.w3.org/1999/xlink">
<g><path style="opacity:1" fill="#0b0f11" d="M -0.5,-0.5 C 340.833,-0.5 682.167,-0.5 1023.5,-0.5C 1023.5,340.833 1023.5,682.167 1023.5,1023.5C 682.167,1023.5 340.833,1023.5 -0.5,1023.5C -0.5,682.167 -0.5,340.833 -0.5,-0.5 Z"/></g>
<g><path style="opacity:1" fill="#fcfcfc" d="M 277.5,204.5 C 347.543,210.699 408.876,236.866 461.5,283C 468.4,289.9 475.233,296.733 482,303.5C 576.68,298.919 667.513,315.419 754.5,353C 766.99,359.078 779.323,365.411 791.5,372C 780.63,376.551 769.297,378.884 757.5,379C 744.006,371.587 730.006,365.253 715.5,360C 634.871,334.196 552.204,322.196 467.5,324C 433.396,285.567 392.062,257.901 343.5,241C 336.359,238.923 329.193,237.09 322,235.5C 337.735,273.326 342.735,312.659 337,353.5C 335.657,357.51 333.491,361.01 330.5,364C 322.149,369.175 314.149,374.842 306.5,381C 292.998,394.169 279.831,407.669 267,421.5C 250.016,440.78 236.016,462.113 225,485.5C 212.722,519.053 210.055,553.387 217,588.5C 220.032,598.605 224.032,608.272 229,617.5C 236.694,610.115 244.527,603.282 252.5,597C 234.574,628.778 219.74,661.945 208,696.5C 206.111,702.951 204.611,709.451 203.5,716C 205.169,716.122 206.835,715.788 208.5,715C 218.327,709.92 227.994,704.587 237.5,699C 286.201,662.897 336.034,628.397 387,595.5C 381.497,585.501 376.164,575.168 371,564.5C 362.983,543.927 361.65,522.927 367,501.5C 368.409,497.684 370.076,494.017 372,490.5C 367.653,533.173 382.153,567.673 415.5,594C 417.369,595.602 419.369,596.602 421.5,597C 398.932,570.577 390.432,540.077 396,505.5C 397.525,495.895 401.525,487.561 408,480.5C 405.519,505.473 408.019,529.973 415.5,554C 421.743,572.155 432.409,587.155 447.5,599C 450.207,599.328 452.874,598.995 455.5,598C 492.312,585.38 529.979,576.38 568.5,571C 583.857,570.236 599.191,570.569 614.5,572C 648.978,576.354 683.478,580.521 718,584.5C 724.067,584.525 729.9,583.359 735.5,581C 760.663,569.474 783.996,555.141 805.5,538C 808.219,535.618 810.553,532.951 812.5,530C 811.179,527.346 809.179,525.346 806.5,524C 783.167,514 759.833,504 736.5,494C 732.411,491.873 728.577,489.373 725,486.5C 720.111,479.172 716.778,471.172 715,462.5C 712.433,450.963 710.933,439.296 710.5,427.5C 700.842,428.029 691.175,428.362 681.5,428.5C 678.608,455.675 670.775,481.342 658,505.5C 645.826,514.897 631.992,520.397 616.5,522C 596.809,522.847 577.142,522.513 557.5,521C 535.261,518.821 521.428,506.988 516,485.5C 513.598,462.633 511.431,439.8 509.5,417C 465.288,417.125 421.621,422.125 378.5,432C 356.562,439.045 337.395,450.545 321,466.5C 335.138,435.714 358.638,415.547 391.5,406C 452.921,393.935 514.921,387.101 577.5,385.5C 601.23,385.436 624.896,386.603 648.5,389C 661.181,391.167 671.515,397.167 679.5,407C 692.258,407.132 704.925,406.132 717.5,404C 720.227,398.273 724.56,394.273 730.5,392C 739.967,389.219 749.633,387.552 759.5,387C 779.818,385.635 800.151,385.302 820.5,386C 826.971,386.694 833.304,388.027 839.5,390C 847.694,392.718 851.36,398.384 850.5,407C 850.165,412.847 849.665,418.681 849,424.5C 848.667,424.833 848.333,425.167 848,425.5C 847.197,422.756 846.197,420.089 845,417.5C 844.961,442.327 842.628,466.994 838,491.5C 837.154,495.234 835.654,498.568 833.5,501.5C 826.169,497.837 819.169,493.67 812.5,489C 815.226,487.312 818.059,485.812 821,484.5C 822.711,479.615 824.045,474.615 825,469.5C 827.725,452.59 829.058,435.59 829,418.5C 826.846,411.994 822.346,408.161 815.5,407C 811.853,406.226 808.186,405.559 804.5,405C 789.167,404.333 773.833,404.333 758.5,405C 748.213,405.753 739.38,409.586 732,416.5C 730.012,420.224 729.179,424.224 729.5,428.5C 730.269,441.177 732.769,453.511 737,465.5C 738.211,468.759 740.044,471.592 742.5,474C 775.399,487.449 808.065,501.449 840.5,516C 846.611,520.814 847.111,526.314 842,532.5C 808.785,567.202 769.618,593.035 724.5,610C 714.057,620.045 703.057,629.379 691.5,638C 674.557,648.765 657.223,658.931 639.5,668.5C 639.167,670 638.833,671.5 638.5,673C 640.921,699.487 641.088,725.987 639,752.5C 637.59,760.885 635.923,769.218 634,777.5C 632.08,784.671 629.08,791.338 625,797.5C 596.131,760.287 561.964,729.12 522.5,704C 516.954,701.06 511.287,698.394 505.5,696C 481.186,695.229 457.186,697.562 433.5,703C 424.494,705.67 415.827,709.17 407.5,713.5C 403.88,740.24 399.714,766.906 395,793.5C 390.749,809.442 383.916,824.109 374.5,837.5C 364.524,806.549 351.024,777.215 334,749.5C 321.057,734.22 306.557,720.72 290.5,709C 288.754,708.529 287.087,707.862 285.5,707C 291.729,703.261 298.063,699.761 304.5,696.5C 320.295,707.114 334.795,719.448 348,733.5C 358.308,750.449 367.308,768.115 375,786.5C 382.58,761.08 385.913,735.08 385,708.5C 386.031,705.461 387.865,702.961 390.5,701C 403.425,692.8 417.425,687.133 432.5,684C 458.594,678.51 484.927,675.177 511.5,674C 527.959,680.723 542.959,689.723 556.5,701C 577.872,718.366 598.038,737.199 617,757.5C 623.133,731.121 622.799,704.788 616,678.5C 614.278,671.996 611.778,665.829 608.5,660C 641.564,648.314 670.564,630.314 695.5,606C 657.491,595.851 618.824,591.851 579.5,594C 569.265,594.676 559.265,596.509 549.5,599.5C 571.869,602.004 594.202,604.837 616.5,608C 629.817,610.412 642.817,613.912 655.5,618.5C 639.605,630.11 621.938,637.943 602.5,642C 569.845,648.843 536.845,651.509 503.5,650C 465.489,649.181 427.823,645.181 390.5,638C 384.833,637.333 379.167,637.333 373.5,638C 361.395,643.219 349.728,649.219 338.5,656C 312.846,674.161 286.846,691.828 260.5,709C 230.427,725.953 199.594,741.453 168,755.5C 179.066,714.471 193.233,674.471 210.5,635.5C 181.433,571.98 184.266,509.98 219,449.5C 242.69,410.805 273.023,378.138 310,351.5C 311.927,348.052 313.261,344.385 314,340.5C 318.695,302.386 312.695,266.053 296,231.5C 290.368,222.052 284.202,213.052 277.5,204.5 Z"/></g>
<g><path style="opacity:1" fill="#0c0f11" d="M 546.5,405.5 C 571.502,405.333 596.502,405.5 621.5,406C 632.458,406.035 643.124,407.702 653.5,411C 661.208,417.789 664.375,426.289 663,436.5C 659.395,455.315 653.395,473.315 645,490.5C 637.647,495.734 629.48,499.234 620.5,501C 600.878,504.981 581.212,505.314 561.5,502C 552.296,500.316 544.462,496.149 538,489.5C 536.956,487.285 536.29,484.952 536,482.5C 534.436,463.307 532.603,444.14 530.5,425C 530.96,414.383 536.293,407.883 546.5,405.5 Z"/></g>
<g><path style="opacity:1" fill="#8a8c8b" d="M 583.5,426.5 C 585.693,425.203 588.027,425.203 590.5,426.5C 590.376,427.107 590.043,427.44 589.5,427.5C 587.735,426.539 585.735,426.205 583.5,426.5 Z"/></g>
<g><path style="opacity:1" fill="#fbfbfb" d="M 583.5,426.5 C 585.735,426.205 587.735,426.539 589.5,427.5C 584.515,437.65 578.515,447.15 571.5,456C 574.965,458.463 578.131,461.296 581,464.5C 582.939,471.003 584.106,477.336 584.5,483.5C 573.791,474.122 562.791,465.122 551.5,456.5C 561.322,447.511 570.655,438.011 579.5,428C 580.745,427.209 582.078,426.709 583.5,426.5 Z"/></g>
<g><path style="opacity:1" fill="#fbfbfb" d="M 786.5,430.5 C 793.072,434.392 799.405,438.725 805.5,443.5C 796.738,452.089 788.571,461.089 781,470.5C 775.009,466.007 769.176,461.34 763.5,456.5C 771.932,448.408 779.599,439.741 786.5,430.5 Z"/></g>
<g><path style="opacity:1" fill="#f7f8f8" d="M 612.5,441.5 C 620.971,444.973 628.971,449.306 636.5,454.5C 633.18,457.494 629.513,459.994 625.5,462C 617.149,462.146 608.816,461.646 600.5,460.5C 603.761,453.632 607.761,447.299 612.5,441.5 Z"/></g>
<g><path style="opacity:1" fill="#f3f3f3" d="M 334.5,535.5 C 337.737,543.361 340.904,551.361 344,559.5C 347.83,567.502 351.83,575.169 356,582.5C 342.236,569.651 335.069,553.985 334.5,535.5 Z"/></g>
</svg>
