<?xml version="1.0" encoding="UTF-8"?>
<svg version="1.1" viewBox="0 0 1280 1280" width="320" height="320" xmlns="http://www.w3.org/2000/svg">
<path transform="translate(294,49)" d="m0 0h655l16 2 20 6 17 8 12 8 10 8 12 11 9 10 12 17 8 15 5 15 2 11 1 12 1 35v102l1 73v181l-1 193-2 19-7 24-10 21-11 16-8 10-12 12-10 7-18 10-21 8-15 3-8 1-23 1h-577l-47-1-21-2-18-4-19-8-17-9-10-8-14-14-11-14-12-21-7-17-6-25-1-8v-504l1-69 2-18 5-21 8-20 10-17 13-16 11-11 13-10 17-10 14-6 19-5zm184 46-1 1v62l16 8 6 4 7 7 6 12 4 9 1 1h52l3-7 4-11 8-10 9-6 14-5 3-1 1-63-1-1zm154 0-1 1v62l12 4 10 7 4 2 2 4 7 10 5 13h57l5-13 6-9 5-5 9-6 14-6 1-1-1-62zm159 0-2 1v61l17 9 9 7 6 8 9 18h54l4-13 6-10 5-5 6-5 12-5 7-2v-62l-1-1zm-497 1-24 8-14 8-13 11-7 8-7 11-7 15-6 25-2 11v4h45l3-9 6-11 6-7 12-7 12-4v-63zm28-1-2 1-1 58 2 4 16 8 6 5h2l2 4 6 8 7 16h55l3-9 5-10 9-10 8-5 15-6v-63zm624 1v62l16 8 9 7 7 11 5 13 1 1h38l5-1v-10l-4-19-5-16-8-16-9-11-10-10-11-7-13-6-18-6zm-648 83-6 3-7 11-1 7 3 5 5 5 4 3 6 1 8-3 6-5 3-6-2-9-4-7-7-4zm156 0-5 3-6 9-2 9 6 9 6 4 7 1 9-5 5-6 1-2v-8l-4-8-5-4-7-2zm156 0-6 3-7 11v8l4 6 6 5 5 2 6-1 8-6 3-4 1-3v-8l-4-8-4-3-7-2zm158 0-5 2-5 6-3 7v8l4 6 6 5 8 1 8-4 6-7 1-9-3-8-6-5-7-2zm153 1-6 5-6 12 1 5 6 8 8 4 6-1 6-4 5-5 1-3v-9l-4-8-8-4zm-706 38-1 4 1 23 1 123h43l3-8 5-10 8-9 8-5 16-6-1-69-15-5-9-7-7-9-6-13-3-9zm146 0-2 1-6 16-6 9-5 6-9 6-12 3-1 1-1 38v31l16 8 9 6 8 10 6 15 1 1h57l3-10 7-12 9-8 14-7 7-3-1-43-1-26-12-2-6-4-5-4-9-12-6-13-1-6zm155 0-3 11-7 13-8 9-9 6-13 3v69l16 8 8 6 8 9 8 17h55l3-9 6-12 5-5v-2l4-2 15-7 6-2v-24l-1-30-1-15-1-1-9-1-6-4-11-10-8-13-3-12-3-1-31-1zm156 1-4 11-6 12-8 9-9 6-12 3-1 4-1 18v47l16 8 8 6 8 9 5 11 3 6 56 1 3-7 8-16 7-7 16-8 7-2v-28l-1-42-12-2-7-4-9-9-6-9-4-10-2-7zm157 0-2 10-6 11-10 11-9 6-13 3v68l1 2 12 5 10 7 8 9 8 17 2 2h54l5-13 6-10 5-6 9-5 9-4 6-2v-63l-1-7-12-2-9-6-8-9-7-12-2-5-2-7zm156 0-7 17-8 11-9 8-8 3-7 2-1 5v64l15 7 9 7 8 9 8 17 4 1 38-1v-149l-1-1zm-686 130-8 4-5 9-1 9 5 8 7 4h6l11-6 3-4 1-3v-7l-4-8-5-4-6-2zm157 0-8 4-5 8-1 3v8l4 6 5 4 2 1h7l9-5 5-6 1-2v-8l-5-8-4-3zm156 1-7 2-6 8-2 4v8l4 6 6 5 7 1 10-5 5-5 1-3v-8l-3-8-7-4zm156 0-7 3-4 5-3 8 1 8 4 6 5 3 7 1 7-3 8-7 2-4-1-9-4-7-6-3zm154 1-5 3-5 8-1 9 3 6 5 5 5 2 7-1 6-4 6-7 1-2-1-9-4-6-4-3-4-1zm-708 39 1 31 1 116h42l2-1 2-9 6-10 6-7 10-6 14-4 1-1v-20l-1-48-13-3-9-7-7-8-8-16-2-7zm146 0-8 16-6 9-3 3v2l-4 2-10 6-8 1-1 1v68l7 3 9 4 8 6 7 8 9 17 5 1h49l2-2 4-11 7-10 8-7 8-4 12-3 1-4-1-65-1-1-11-1-9-6-9-10-8-14-3-9zm157 0-11 22-10 11-10 5-9 2-1 3v66l15 5 9 7 7 8 8 17 1 1h53l6-14 9-12 11-7 15-4v-39l-1-29-12-3-11-8-11-14-6-16-1-1zm156 0-2 1-5 13-9 13-9 8-9 4-7 2-1 7v60l12 5 13 9 9 12 5 12 1 1h56l5-12 8-11 8-7 8-4 12-3v-23l-1-46-11-2-8-5-5-4-10-14-4-9-2-7zm157 0-4 10-7 11-7 9-10 7-12 3-1 1v67l2 2 12 4 11 8 8 11 7 14h54l5-12 7-11 8-7 10-5 12-3-1-67-1-1-11-2-10-7-8-9-7-12-3-10-1-1zm173 0-19 1-6 15-11 15-12 7-9 2v69l9 3 8 4 10 9 6 10 5 11 2 1h39l2-1v-146zm-704 130-8 4-5 10v7l4 7 3 3 9 2 10-4 5-5 2-4-1-10-4-6-8-4zm156 0-7 4-5 8-1 8 3 6 6 5 3 1h7l9-5 4-6 1-6-4-10-5-4-3-1zm157 0-8 4-6 9-1 7 4 8 3 3 6 2 8-1 8-5 3-4 1-9-3-8-4-4-5-2zm158 0-8 3-5 6-2 6v8l3 5 4 4 6 2 6-1 6-3 5-5 2-3v-9l-4-8-7-4zm153 1-6 3-4 5-3 7 1 8 7 8 9 1 8-4 5-5 1-2v-13l-5-6-4-2zm-707 35-1 4 1 93 1 56h41l2-2 3-10 7-10 5-5 9-6 15-5-1-70-9-2-11-6-8-8-7-12-2-6-2-10zm182 1-37 1-8 16-7 10-7 8-10 5-9 2v71l12 5 11 7 9 11 9 16h52l3-2 4-11 8-11 11-8 8-3 9-3-1-70-9-1-11-7-8-8-7-11-4-11-2-6zm119 1-6 13-5 10-9 10-12 7-9 3v37l1 33 8 3 10 5 10 9 7 12 4 9h53l5-12 6-10 7-7 9-5 13-3 1-1v-22l-1-37-1-10-3-1-6-1-14-10-1-2h-2l-2-4-6-10-5-14-1-1zm206 0-50 1-5 11-5 10-9 10-9 6-14 6v68l13 5 12 9 7 9 9 16 1 1h53l4-8 6-11 6-7 10-7 16-5v-34l-1-37-10-1-10-7-7-7-8-13-4-13-2-2zm106 1-2 8-7 14-9 10-10 6-12 5v38l1 31 8 3 10 5 10 9 8 14 4 8h51l4-6 6-12 7-9 11-7 9-3 6-1v-49l-1-22-9-1-10-6-11-11-5-8-3-9-2-7zm183-1-26 1-2 2-4 10-6 11-9 10-12 6-8 3v59l1 11 12 4 9 6 7 7 8 14 3 7 29 1h13v-151l-1-1zm-713 134-7 4-5 8-1 8 3 6 5 4 2 1h11l8-5 4-6v-8l-3-6-5-4-5-2zm155 0-6 4-4 7-1 2v8l3 5 6 5h11l8-5 4-7v-7l-3-6-5-4-4-2zm157 0-8 4-6 9v9l4 6 5 4h11l8-4 4-5 1-3v-8l-4-8-7-4zm157 0-6 3-5 6-2 5v7l3 5 5 5 3 1h8l8-4 4-5 2-5-1-8-4-6-8-4zm158 0-8 3-4 5-3 7 1 9 4 6 4 2h10l8-5 4-5 1-8-3-8-5-4zm-712 39 2 21 4 21 5 12 6 11 8 10 13 13 13 8 18 8 10 3h5l1-64-1-1-10-2-10-6-5-5h-2l-2-4-6-10-2-5-1-8-5-2zm147 0-2 1-5 13-7 11-5 6-10 6-10 4-1 1-1 13-1 52 1 1h135l1-3-1-62-4-1-7-2-11-8-7-7-7-11-3-7-1-6-2-1zm156 0-2 2-6 16-7 10-9 8-11 5-5 2v64l1 1h132l1-2-1-18-1-41-1-3-10-3-10-7-8-8-7-11-5-14-2-1zm157 0-2 1-6 15-10 14-7 6-10 5-7 3-1 20v43l2 1h135v-64l-4-2-8-2-9-6-7-7-9-14-2-5-2-7-1-1zm157 0-5 12-6 11-10 11-10 6-10 3v64l2 1h132v-65l-11-3-11-7-7-7-7-11-3-8-2-7zm155 0-5 12-5 10-8 10-13 8-9 3v58l1 6 8-1 16-7 16-9 11-9 7-7 9-14 7-16 4-13 2-15v-16z" fill="#E2ECF0"/>
<path transform="translate(52,1047)" d="m0 0h8l3 5 5 15 11 27 13 35 13 34 6 16 2 10h2l4-16 11-30 12-31 13-36 9-27 3-2h46l1 1 1 66 2 72v64h-36l-1-1-1-55v-81h-2l-3 10-11 28-10 27-9 23-6 16-10 25-2 7-1 1h-22l-5-8-6-16-18-43-14-36-9-23-3-5-1 29-1 101-3 1h-32l-1-1v-38l1-143 1-20z" fill="#E2ECF0"/>
<path transform="translate(847,1047)" d="m0 0h27l14 4 12 7 10 8 6 5 8 11-1 5-13 11-8 6-5-3-7-8-6-5-11-5-10-2-13 1-12 5-10 9-5 9-2 6-1 8v56l2 14 4 9 8 9 10 6 13 5 11-1 11-4 11-7 5-6 2-4h5l8 6 13 9 3 5-5 5-13 12-15 10-14 6-10 2h-21l-14-3-13-5-10-6-12-12-7-10-8-19-3-17-1-9v-22l3-32 3-14 6-15 9-13 9-9 13-9 12-6z" fill="#E3ECF0"/>
<path transform="translate(294,1100)" d="m0 0h9l15 2 12 4 11 7 7 8 6 12 4 16 1 64 2 29 1 8-2 1h-29l-2-10v-7l-15 10-12 6-11 2h-22l-9-2-11-7-8-9-5-10-1-4v-19l4-13 7-10 9-7 14-7 13-4 5-1h37l-3-12-4-6-7-6-9-2h-20l-12 3-10 6-4 1-3-9-7-12-4-4v-2l19-9 12-4 11-2zm3 84-15 4-8 6-4 7-1 5 3 8 5 6 9 4h13l11-4 8-6 4-7 1-4v-13l-5-4-9-2z" fill="#E2ECF0"/>
<path transform="translate(990,1100)" d="m0 0h11l17 3 12 6 9 8 9 13 5 15 1 8 1 23 1 60 2 9v4l-14 1h-18l-1-1-2-15-11 7-12 6-14 4h-22l-10-3-11-8-8-11-3-5-1-4v-22l4-11 7-9 11-8 9-5 17-4 9-1h13l14 2h5l-2-13-4-8-6-5-9-3-5-1h-15l-15 3-15 7h-3l-7-13-5-5-2-3 9-6 22-10 18-4zm7 84-15 2-8 3-6 7-3 6 1 9 6 8 6 3 5 1h9l11-2 9-5 6-7 1-3v-17l-4-3-10-2z" fill="#E3ECF0"/>
<path transform="translate(638,1102)" d="m0 0h43l8 10 20 32 5-5 8-12 8-13 7-12 35 1 4 1-2 4-8 9-10 17-14 22-11 17-1 4v2l4 2 9 13 12 16 10 13 8 12 9 14v1h-43l-9-15-18-27-3-5-4 2-14 22-9 14-4 8-2 1-38 1 1-5 13-21 13-18 12-16 11-15-1-4-15-20-16-24-12-16-6-9z" fill="#E3EDF1"/>
<path transform="translate(388,1057)" d="m0 0 38 2v25l-1 18h37l1 1v20l-1 7-4 1-32 1v15l2 61 3 6 6 4 3 1h13l8-4 3-1 3 11 3 17-1 4-14 4-13 2h-14l-11-4-11-8-7-7-6-10-2-8-1-9-1-56v-18l-17 1-1-1v-29h17l-1-45z" fill="#E2ECF0"/>
<path transform="translate(1203,1099)" d="m0 0 16 1 12 3 21 10 11 8-1 3-9 5-7 7-5 9-4-2-10-7-9-3h-20l-8 3-7 6-5 11-2 10v22l4 15 6 9 9 6 7 3h17l12-7 6-6 4 1 8 7 16 10v3l-6 3-19 13-15 7-9 2h-26l-13-4-11-7-10-9-7-11-6-15-4-18v-30l5-20 5-10 9-10 10-7 12-6 15-4z" fill="#E3EDF1"/>
<path transform="translate(1077,1039)" d="m0 0 40 1v164l1 11 4 8 4 5 1 5v14l-1 2h-33l-5-3-5-6-3-8-2-19-1-106z" fill="#E2ECF0"/>
<path transform="translate(555,1100)" d="m0 0h18l2 1-3 30-1 1-20 3-7 3-8 6-7 11-2 5-2 18-2 72h-36l-1-1-1-95-1-43-1-7 1-1h38l-2 9-1 13h2l2-4 6-8 12-9 9-3z" fill="#E2ECF0"/>
<path transform="translate(589,1102)" d="m0 0h36l1 1 1 146-1 2h-25l-12-1-1-16v-131z" fill="#E3EDF0"/>
<path transform="translate(302,54)" d="m0 0h21l15 1 13 4-2 9-5 3-7 2-1 7-4 4 1 2-3 3-3 1-2-1v2l-9 1-8 4-10-1h-5l1 2-6-1-1-2-3 1-3-1h-6l-3 1v-2l-5-1-3-3 1-5 4-2-3-4 3-4-1-5 5-5 10-4 3-2 11-2z" fill="#CAD6DC"/>
<path transform="translate(606,1034)" d="m0 0h8l8 4 6 7 3 7 1 8-3 9-6 8-7 3h-15l-6-4-6-8-1-3v-13l4-8 9-8z" fill="#F9FAFB"/>
<path transform="translate(741,1197)" d="m0 0 4 2 5 4 8 11 11 15 10 15 3 6h-43l-9-15-8-12-5-7-2-8h5l4 6 10 11 2 5 4 2 6 5 8 1 2-1-1-7-5-13-9-18z" fill="#F9FAFB"/>
<path transform="translate(624,1179)" d="m0 0 2 2 1 68-1 2h-25l-12-1v-60h1l2 17 2 9v7h2l1-3 2 7 1 9 1 3h7l6-3 1-2 1-9 2 2 3-16 2-15z" fill="#FCFCFC"/>
<path transform="translate(688,1179)" d="m0 0h1v5l-9 16-6 7-9 14-9 13-1 7 7 1h14l4-1-1 6-3 3-38 1 1-5 13-21 13-18 12-16 5-7z" fill="#F9FAFB"/>
<path transform="translate(1145,1208)" d="m0 0 3 4 4 1 8 10 7 6 4 2 4 5 13 6-1 3 8 4h13l4-3 18-5 12-3 4-4 2-8v-11l-1-2 6 2 12 8v3l-6 3-19 13-15 7-9 2h-26l-13-4-11-7-10-9-7-11-4-9z" fill="#FAFBFB"/>
<path transform="translate(605,1042)" d="m0 0h8l7 3 8 7 1 1v8l-5 7-13 5-10-2-4-6-2-5v-6l5-8z" fill="#E3EDF1"/>
<path transform="translate(388,1057)" d="m0 0 38 2-1 13-2 21-2-3-2-5-2-12-4-4-7-1-8 3-5 6-2 2 1 6 1 1v5l-4 3-1-4-1-32z" fill="#FDFDFD"/>
<path transform="translate(291,1160)" d="m0 0h9v5l-12 3-5 3-12 3-12 5-8 5-10 8h-2l-1 3-1-2 5-10 7-8 13-8 16-6z" fill="#FCFCFC"/>
<path transform="translate(237,1221)" d="m0 0 5 1 4 5 7 9 5 5 11 5 10 2h8l6-2 12-2 10-3 1 2-14 7-11 2h-22l-9-2-11-7-8-9-4-7z" fill="#F9FAFB"/>
<path transform="translate(450,1103)" d="m0 0h13v20l-1 7h-19l1-6 8-5 1-4-6-7v-2z" fill="#FCFCFC"/>
<path transform="translate(555,1100)" d="m0 0h18l2 1-1 6h-19l-17 10-6 3-7 1 1-5 9-8 8-5z" fill="#FBFBFC"/>
<path transform="translate(395,1224)" d="m0 0h3v2l4 2 11 10 2 5 10 3 9 2 5-1h10l4 1v2l-11 2h-14l-11-4-11-8-7-7-4-6z" fill="#FAFBFB"/>
<path transform="translate(638,1102)" d="m0 0h19l-1 2h-2l1 12 6 9 1 10-4-4-14-19-6-9z" fill="#FAFBFB"/>
<path transform="translate(283,1101)" d="m0 0h7l-1 2-17 4-9 1-1 4-7 3-5 12h-2l-6-8-1-3 19-9 12-4z" fill="#FAFBFB"/>
<path transform="translate(284,1178)" d="m0 0h12l12 2 4 3-22 1-6 3h-2v2l-9 6 1-10 5-5z" fill="#FCFCFC"/>
<path transform="translate(266,1206)" d="m0 0h2l7 11 8 5 3 1 18 1-4 3-4 2h-10l-13-5-7-8-1-2v-7z" fill="#F9FAFB"/>
<path transform="translate(570,1122)" d="m0 0h1v10l-20 3-7 3-8 5v-8l5-5 16-1 4-2 8-2z" fill="#F6F8F9"/>
<path transform="translate(522,1176)" d="m0 0h1v74h-14l5-5 4-6 3-22z" fill="#FDFDFD"/>
<path transform="translate(358,1236)" d="m0 0h1l2 14-1 1h-29l-1-2v-7l5 1 4 3h10l6-3z" fill="#FCFCFC"/>
<path transform="translate(1177,1201)" d="m0 0 4 1 6 8 10 6 3 3-1 5h-6l-8-6-7-10z" fill="#FBFCFC"/>
<path transform="translate(462,1216)" d="m0 0 4 4 4 22-1 4-7 2-5-1 4-4 4-1v-12l-1-8-7-2z" fill="#FCFCFC"/>
<path transform="translate(252,1130)" d="m0 0 1 2 7 1h2l5-2 4 2v2l-11 6-2 2-4-1-2-8z" fill="#F8FAFA"/>
<path transform="translate(763,1105)" d="m0 0h13l-6 7-5 4-5-4-3-2 1-4z" fill="#FBFBFC"/>
<path transform="translate(388,1057)" d="m0 0 38 2v1l-15 1h-14l-8-1v29h-1l-1-31z" fill="#E3EDF1"/>
<path transform="translate(460,66)" d="m0 0h7l3 5v2h-6l-6-2h-5l-7 2v-3l8-3h5z" fill="#CAD6DC"/>
<path transform="translate(944,1130)" d="m0 0 4 1 1 3 8 1v3l-8 4h-3l-3-11z" fill="#FAFBFB"/>
<path transform="translate(455,73)" d="m0 0 6 1 3 2-1 4-10 1-3-2-4-5 6 1z" fill="#CAD6DC"/>
<path transform="translate(737,1102)" d="m0 0h3l2 4h-2l-1 4-4 4-4 1-1 3-1-2z" fill="#FAFBFB"/>
<path transform="translate(1237,1205)" d="m0 0h3l-2 8-10 5-3-1 4-5z" fill="#FAFBFB"/>
<path transform="translate(283,1101)" d="m0 0h7l-1 2-17 4-9 1v-2l9-3z" fill="#F8FAFA"/>
<path transform="translate(688,1114)" d="m0 0 3 1 11 18 1 4-3-1-3-4v-2h-2l-5-11z" fill="#F6F8F9"/>
<path transform="translate(570,1122)" d="m0 0h1v9h-15l3-3 10-3z" fill="#FDFDFD"/>
<path transform="translate(237,805)" d="m0 0 4 2 11 11v2l-5-2-4-2-6-10z" fill="#F6F9FA"/>
<path transform="translate(664,1102)" d="m0 0h17l7 9-1 2-1-3h-2v-2h-2v-2l-16-2z" fill="#F9FAFB"/>
<path transform="translate(425,1199)" d="m0 0 2 4 3 10 5 4v2l-5-1-4-4-1-4z" fill="#F8FAFA"/>
<path transform="translate(462,1216)" d="m0 0 4 4 1 5v15h-1l-2-18-7-2z" fill="#FDFDFD"/>
<path transform="translate(434,1103)" d="m0 0h12l1 2-3 3h-7l-3-2z" fill="#FDFDFD"/>
<path transform="translate(180,1240)" d="m0 0 6 4 2 5-1 1h-6l-1-1z" fill="#FDFDFD"/>
<path transform="translate(517,1103)" d="m0 0h5l-2 9h-2l-4-6-5-1v-1z" fill="#F0F4F6"/>
<path transform="translate(278,1161)" d="m0 0 4 1-3 2-9 2-14 7-2-1 10-6z" fill="#E1EBEF"/>
<path transform="translate(940,1116)" d="m0 0 3 1-3 7h-3l-5-2 4-4z" fill="#FAFBFB"/>
<path transform="translate(950,1172)" d="m0 0 3 2-4 1v3l-5 3-1 2h-2l-1 2-2-2 5-6z" fill="#F0F4F6"/>
<path transform="translate(265,1131)" d="m0 0 6 2v2l-9 4-3-2h2l2-4z" fill="#F3F6F8"/>
<path transform="translate(388,1057)" d="m0 0 3 1v2h-2v29h-1l-1-31z" fill="#DCE7EB"/>
<path transform="translate(214,1242)" d="m0 0h1v8h-10l5-5z" fill="#FDFDFD"/>
<path transform="translate(97,1235)" d="m0 0 1 2 4 2 2 6v2l-4-1-3-7z" fill="#F6F8F9"/>
<path transform="translate(986,1162)" d="m0 0h14l-1 3-7 1-6-3z" fill="#FDFDFD"/>
<path transform="translate(290,1183)" d="m0 0h19v1l-17 2-10 2 2-2z" fill="#DCE7EB"/>
<path transform="translate(333,1109)" d="m0 0 5 2 8 7 4 6-1 2-11-12z" fill="#EEF3F5"/>
<path transform="translate(228,860)" d="m0 0 6 2 8 5-1 2-6-2-7-5z" fill="#EEF3F5"/>
<path transform="translate(425,1066)" d="m0 0h1v18l-3 1 1-13z" fill="#E0EBEF"/>
<path transform="translate(389,1083)" d="m0 0h2l2 3v5l-4 3-1-5z" fill="#FCFCFC"/>
<path transform="translate(318,1212)" d="m0 0 1 3-2 3-4 2-2 3h-5v-2l10-6z" fill="#F8F9FA"/>
<path transform="translate(196,826)" d="m0 0 5 2 2 5v3l-3-1-4-6z" fill="#F6F9FA"/>
<path transform="translate(252,1173)" d="m0 0 2 1-11 11v-3l6-7z" fill="#E8EFF2"/>
<path transform="translate(622,1106)" d="m0 0h1v14l-2-3-1-8z" fill="#FDFDFD"/>
<path transform="translate(967,682)" d="m0 0 4 2 6 7 1 4-5-5-6-7z" fill="#F3F6F8"/>
<path transform="translate(488,1243)" d="m0 0 4 2 1 4-5 1-1-6z" fill="#FDFDFD"/>
<path transform="translate(467,1231)" d="m0 0h1l2 14-3 1z" fill="#E1EBEF"/>
</svg>
