<?xml version="1.0" encoding="UTF-8"?>

<svg xmlns="http://www.w3.org/2000/svg" version="1.1" width="500px" height="500px" style="shape-rendering:geometricPrecision; text-rendering:geometricPrecision; image-rendering:optimizeQuality; fill-rule:evenodd; clip-rule:evenodd" xmlns:xlink="http://www.w3.org/1999/xlink">
<g><path style="opacity:0.347" fill="#878788" d="M 149.5,100.5 C 145.154,100.334 140.821,100.501 136.5,101C 137.056,101.383 137.389,101.883 137.5,102.5C 136.078,102.25 135.078,101.417 134.5,100C 139.684,99.1837 144.684,99.3503 149.5,100.5 Z"/></g>
<g><path style="opacity:0.994" fill="#eaeaea" d="M 149.5,100.5 C 165.557,103.385 180.557,108.718 194.5,116.5C 195.514,117.674 196.847,118.34 198.5,118.5C 204.441,121.78 210.108,125.447 215.5,129.5C 216.693,131.054 217.86,132.721 219,134.5C 219.383,133.944 219.883,133.611 220.5,133.5C 225.113,137.11 229.447,141.11 233.5,145.5C 269.228,145.353 304.228,150.187 338.5,160C 346.354,162.378 354.021,165.212 361.5,168.5C 362.287,170.104 363.62,170.771 365.5,170.5C 372.933,173.716 380.266,177.216 387.5,181C 381.198,184.562 374.531,185.728 367.5,184.5C 367.027,183.094 366.027,182.427 364.5,182.5C 346.536,175.705 328.203,170.038 309.5,165.5C 306.456,163.989 303.122,163.322 299.5,163.5C 295.455,161.823 291.122,161.156 286.5,161.5C 279.407,161.31 272.407,160.643 265.5,159.5C 253.674,158.669 241.674,158.169 229.5,158C 228.473,157.487 227.473,156.987 226.5,156.5C 218.816,149.15 210.816,142.15 202.5,135.5C 202.027,134.094 201.027,133.427 199.5,133.5C 198.29,133.068 197.29,132.401 196.5,131.5C 196.027,130.094 195.027,129.427 193.5,129.5C 187.85,126.863 182.183,124.197 176.5,121.5C 175.713,119.896 174.38,119.229 172.5,119.5C 167.501,117.993 162.501,116.826 157.5,116C 159.93,119.456 161.263,123.29 161.5,127.5C 161.41,130.152 162.076,132.485 163.5,134.5C 163.5,134.833 163.5,135.167 163.5,135.5C 163.926,142.658 164.26,149.824 164.5,157C 164.651,163.912 163.984,170.412 162.5,176.5C 147.871,187.462 134.871,200.129 123.5,214.5C 122.094,214.973 121.427,215.973 121.5,217.5C 115.582,225.336 111.248,234.003 108.5,243.5C 105.925,245.845 104.925,248.845 105.5,252.5C 104.441,262.14 104.275,271.806 105,281.5C 107.062,287.409 108.895,293.409 110.5,299.5C 113.196,300.569 115.196,299.569 116.5,296.5C 118.598,295.086 119.598,295.752 119.5,298.5C 117.896,299.287 117.229,300.62 117.5,302.5C 116.094,302.973 115.427,303.973 115.5,305.5C 113.07,312.016 110.403,318.35 107.5,324.5C 105.552,326.32 104.552,328.654 104.5,331.5C 103.501,335.142 102.335,338.809 101,342.5C 100.333,344.5 100.333,346.5 101,348.5C 107.798,345.189 114.298,341.523 120.5,337.5C 122.404,337.262 123.738,336.262 124.5,334.5C 125.29,333.599 126.29,332.932 127.5,332.5C 129.404,332.262 130.738,331.262 131.5,329.5C 135.193,326.147 139.193,323.147 143.5,320.5C 145.027,320.573 146.027,319.906 146.5,318.5C 159.441,309.021 172.775,300.021 186.5,291.5C 188.552,290.947 188.885,289.947 187.5,288.5C 186.248,286.999 185.248,285.332 184.5,283.5C 184.715,281.821 184.048,280.821 182.5,280.5C 181.833,278.833 181.167,277.167 180.5,275.5C 180.741,273.102 180.074,271.102 178.5,269.5C 178.5,269.167 178.5,268.833 178.5,268.5C 178.02,263.178 177.687,257.845 177.5,252.5C 176.962,247.765 177.962,243.431 180.5,239.5C 181.167,244.5 181.833,249.5 182.5,254.5C 183.517,259.903 184.851,265.236 186.5,270.5C 186.427,272.027 187.094,273.027 188.5,273.5C 191.176,277.468 194.343,281.135 198,284.5C 197.114,280.507 195.78,276.507 194,272.5C 190.063,259.831 190.896,247.498 196.5,235.5C 197.325,234.614 198.325,234.281 199.5,234.5C 199.594,241.347 199.594,248.014 199.5,254.5C 200.677,260.209 202.011,265.876 203.5,271.5C 203.229,273.38 203.896,274.713 205.5,275.5C 208.343,280.519 211.676,285.186 215.5,289.5C 216.148,291.586 217.648,292.586 220,292.5C 221.876,292.475 223.376,291.809 224.5,290.5C 232.326,287.666 240.326,285.332 248.5,283.5C 251.553,283.889 254.22,283.223 256.5,281.5C 266.342,278.887 276.509,277.554 287,277.5C 308.087,279.114 329.087,281.447 350,284.5C 355.069,283.874 359.902,282.54 364.5,280.5C 366.027,280.573 367.027,279.906 367.5,278.5C 370.414,276.643 373.414,274.977 376.5,273.5C 378.027,273.573 379.027,272.906 379.5,271.5C 381.027,271.573 382.027,270.906 382.5,269.5C 386.462,266.512 390.462,263.512 394.5,260.5C 396.552,259.947 396.885,258.947 395.5,257.5C 387.279,253.646 378.946,249.979 370.5,246.5C 369.713,244.896 368.38,244.229 366.5,244.5C 364.716,244.107 363.05,243.441 361.5,242.5C 360.713,240.896 359.38,240.229 357.5,240.5C 352.102,237.011 349.102,232.011 348.5,225.5C 348.749,221.542 348.082,217.876 346.5,214.5C 346.167,212.5 345.833,210.5 345.5,208.5C 344.5,208.5 343.5,208.5 342.5,208.5C 339.167,208.5 335.833,208.5 332.5,208.5C 332.5,210.5 332.5,212.5 332.5,214.5C 330.709,225.707 327.209,236.374 322,246.5C 316.971,250.851 311.137,253.684 304.5,255C 293.833,255.667 283.167,255.667 272.5,255C 266.188,254.341 260.855,251.841 256.5,247.5C 256.573,245.973 255.906,244.973 254.5,244.5C 254.715,242.821 254.048,241.821 252.5,241.5C 250.407,229.059 248.741,216.559 247.5,204C 226.66,204.522 205.993,206.688 185.5,210.5C 183.219,210.077 181.552,210.744 180.5,212.5C 174.68,215.243 169.013,218.243 163.5,221.5C 162.833,220.5 162.167,219.5 161.5,218.5C 162.906,218.027 163.573,217.027 163.5,215.5C 164.402,213.659 165.736,212.326 167.5,211.5C 168.833,210.833 169.833,209.833 170.5,208.5C 170.833,207.5 171.5,206.833 172.5,206.5C 174.027,206.573 175.027,205.906 175.5,204.5C 177.027,204.573 178.027,203.906 178.5,202.5C 179.167,202.167 179.833,201.833 180.5,201.5C 183.481,201.818 185.815,200.818 187.5,198.5C 191.715,197.021 196.048,195.855 200.5,195C 236.287,189.348 272.287,187.014 308.5,188C 312.5,188.667 316.5,189.333 320.5,190C 324.181,190.872 327.181,192.706 329.5,195.5C 329.414,196.496 329.748,197.329 330.5,198C 335.02,198.814 339.354,198.647 343.5,197.5C 343.833,197.5 344.167,197.5 344.5,197.5C 347.082,197.975 349.082,197.308 350.5,195.5C 352.071,192.769 354.405,190.935 357.5,190C 361.813,189.265 366.147,188.765 370.5,188.5C 381.654,188.576 392.987,188.576 404.5,188.5C 412.386,188.422 416.053,192.255 415.5,200C 413.393,214.165 411.227,228.332 409,242.5C 408.29,243.973 407.124,244.64 405.5,244.5C 405.027,243.094 404.027,242.427 402.5,242.5C 401.508,242.672 400.842,242.338 400.5,241.5C 398.599,240.065 398.266,238.398 399.5,236.5C 403.06,225.467 404.227,214.134 403,202.5C 399.839,199.443 396.005,197.943 391.5,198C 381.689,196.927 372.022,197.594 362.5,200C 356.766,203.18 354.933,208.013 357,214.5C 357.496,221.312 359.996,227.145 364.5,232C 375.294,235.899 385.961,240.066 396.5,244.5C 397.183,246.176 398.517,246.843 400.5,246.5C 405.051,248.18 409.218,250.514 413,253.5C 413.667,255.167 413.667,256.833 413,258.5C 402.398,270.283 390.231,279.95 376.5,287.5C 374.821,287.285 373.821,287.952 373.5,289.5C 367.715,292.61 361.715,295.277 355.5,297.5C 353.833,297.5 352.167,297.5 350.5,297.5C 350.5,298.5 350.5,299.5 350.5,300.5C 343.649,308.016 335.649,314.016 326.5,318.5C 324.821,318.285 323.821,318.952 323.5,320.5C 319.148,322.673 315.148,325.34 311.5,328.5C 313.004,335.562 313.67,342.729 313.5,350C 313.915,358.814 312.915,367.314 310.5,375.5C 309.207,376.842 308.374,378.509 308,380.5C 307.667,380.167 307.333,379.833 307,379.5C 306.626,380.416 306.126,381.25 305.5,382C 306.731,383.183 306.731,384.349 305.5,385.5C 304.274,384.637 302.94,384.637 301.5,385.5C 290.802,373.801 279.468,362.801 267.5,352.5C 267.167,351.5 266.5,350.833 265.5,350.5C 261.517,348.194 257.517,345.861 253.5,343.5C 252.313,341.025 250.313,340.025 247.5,340.5C 230.836,339.406 214.836,342.073 199.5,348.5C 197.656,350.279 196.99,352.612 197.5,355.5C 196.989,369.93 194.489,383.93 190,397.5C 187.956,401.818 185.456,405.818 182.5,409.5C 180.59,405.683 179.257,401.683 178.5,397.5C 178.771,395.62 178.104,394.287 176.5,393.5C 175.27,391.703 174.604,389.703 174.5,387.5C 174.573,385.973 173.906,384.973 172.5,384.5C 172.771,382.62 172.104,381.287 170.5,380.5C 170.771,378.62 170.104,377.287 168.5,376.5C 161.54,363.873 151.873,353.873 139.5,346.5C 139.33,345.178 139.663,344.011 140.5,343C 143.554,340.792 146.887,339.792 150.5,340C 157.277,344.94 163.61,350.44 169.5,356.5C 172.287,359.741 174.287,363.407 175.5,367.5C 175.427,369.027 176.094,370.027 177.5,370.5C 179.238,374.216 181.072,377.882 183,381.5C 185.717,369.012 187.383,356.345 188,343.5C 189.271,342.117 190.771,341.117 192.5,340.5C 194.027,340.573 195.027,339.906 195.5,338.5C 197.38,338.771 198.713,338.104 199.5,336.5C 200.708,335.766 202.041,335.433 203.5,335.5C 206.152,335.59 208.485,334.924 210.5,333.5C 222.473,330.695 234.64,328.695 247,327.5C 253.447,329.47 259.28,332.47 264.5,336.5C 264.973,337.906 265.973,338.573 267.5,338.5C 279.37,347.027 290.37,356.694 300.5,367.5C 301.17,365.709 301.837,364.042 302.5,362.5C 303.165,359.016 303.499,355.349 303.5,351.5C 303.489,347.435 302.822,343.768 301.5,340.5C 301.152,336.443 300.486,332.443 299.5,328.5C 299.771,326.62 299.104,325.287 297.5,324.5C 296.316,323.312 296.316,322.145 297.5,321C 300.022,319.659 302.689,318.826 305.5,318.5C 307.027,318.573 308.027,317.906 308.5,316.5C 317.008,312.327 325.008,307.327 332.5,301.5C 334.716,300.797 336.549,299.464 338,297.5C 338.692,296.563 338.525,295.897 337.5,295.5C 316.087,290.611 294.421,289.278 272.5,291.5C 271.127,291.343 269.793,291.51 268.5,292C 271.393,293.149 274.393,293.649 277.5,293.5C 292.456,293.546 306.789,296.379 320.5,302C 315.609,305.766 310.276,308.6 304.5,310.5C 299.255,311.309 294.255,312.642 289.5,314.5C 285.183,314.083 281.183,314.75 277.5,316.5C 248.983,318.866 220.65,317.366 192.5,312C 188.833,311.333 185.167,311.333 181.5,312C 177.71,314.377 173.71,316.377 169.5,318C 155.997,327.584 142.33,336.917 128.5,346C 117.187,352.464 105.52,358.298 93.5,363.5C 91.8212,363.285 90.8212,363.952 90.5,365.5C 90.1667,365.5 89.8333,365.5 89.5,365.5C 87.6203,365.229 86.287,365.896 85.5,367.5C 85.1667,367.5 84.8333,367.5 84.5,367.5C 82.8235,366.817 82.1568,365.483 82.5,363.5C 84.7687,355.028 87.4354,346.694 90.5,338.5C 92.1042,337.713 92.7709,336.38 92.5,334.5C 94.8149,326.053 97.8149,317.886 101.5,310C 100.273,307.266 99.2731,304.433 98.5,301.5C 99.9617,298.358 99.295,296.358 96.5,295.5C 96.5,295.167 96.5,294.833 96.5,294.5C 96.8294,291.772 96.1628,289.438 94.5,287.5C 90.3303,267.726 92.3303,248.726 100.5,230.5C 103.09,228.112 104.757,225.112 105.5,221.5C 105.5,221.167 105.5,220.833 105.5,220.5C 106.906,220.027 107.573,219.027 107.5,217.5C 114.925,204.685 124.258,193.352 135.5,183.5C 137.749,182.92 139.415,181.587 140.5,179.5C 144.322,175.971 148.155,172.305 152,168.5C 153.725,158.528 153.891,148.528 152.5,138.5C 152.33,137.178 152.663,136.011 153.5,135C 152.309,134.302 151.309,133.469 150.5,132.5C 148.931,124.71 146.265,117.377 142.5,110.5C 142.446,108.368 141.446,107.035 139.5,106.5C 138.326,105.486 137.66,104.153 137.5,102.5C 137.389,101.883 137.056,101.383 136.5,101C 140.821,100.501 145.154,100.334 149.5,100.5 Z M 271.5,197.5 C 284.155,198.155 296.821,198.655 309.5,199C 317.887,198.724 322.554,202.724 323.5,211C 321.272,219.186 318.938,227.353 316.5,235.5C 315.094,235.973 314.427,236.973 314.5,238.5C 300.246,245.903 285.246,247.403 269.5,243C 267.999,241.748 266.332,240.748 264.5,240C 262.996,238.509 262.163,236.676 262,234.5C 261.746,225.774 260.913,217.107 259.5,208.5C 259.507,204.826 260.84,201.826 263.5,199.5C 266.33,199.037 268.997,198.371 271.5,197.5 Z"/></g>
<g><path style="opacity:0.655" fill="#6b7172" d="M 139.5,106.5 C 141.446,107.035 142.446,108.368 142.5,110.5C 141.026,109.564 140.026,108.23 139.5,106.5 Z"/></g>
<g><path style="opacity:0.008" fill="#666666" d="M 194.5,116.5 C 196.38,116.229 197.713,116.896 198.5,118.5C 196.847,118.34 195.514,117.674 194.5,116.5 Z"/></g>
<g><path style="opacity:0.059" fill="#383838" d="M 172.5,119.5 C 174.38,119.229 175.713,119.896 176.5,121.5C 174.847,121.34 173.514,120.674 172.5,119.5 Z"/></g>
<g><path style="opacity:0.471" fill="#6f6f6f" d="M 193.5,129.5 C 195.027,129.427 196.027,130.094 196.5,131.5C 194.973,131.573 193.973,130.906 193.5,129.5 Z"/></g>
<g><path style="opacity:0.62" fill="#777778" d="M 215.5,129.5 C 217.754,130.124 219.421,131.457 220.5,133.5C 219.883,133.611 219.383,133.944 219,134.5C 217.86,132.721 216.693,131.054 215.5,129.5 Z"/></g>
<g><path style="opacity:0.063" fill="#737373" d="M 161.5,127.5 C 162.924,129.515 163.59,131.848 163.5,134.5C 162.076,132.485 161.41,130.152 161.5,127.5 Z"/></g>
<g><path style="opacity:0.424" fill="#6d6d6d" d="M 199.5,133.5 C 201.027,133.427 202.027,134.094 202.5,135.5C 200.973,135.573 199.973,134.906 199.5,133.5 Z"/></g>
<g><path style="opacity:0.996" fill="#939393" d="M 150.5,132.5 C 151.309,133.469 152.309,134.302 153.5,135C 152.663,136.011 152.33,137.178 152.5,138.5C 151.262,136.786 150.595,134.786 150.5,132.5 Z"/></g>
<g><path style="opacity:0.528" fill="#b1b1b2" d="M 163.5,135.5 C 166.422,147.618 166.922,159.951 165,172.5C 164.8,174.32 163.966,175.653 162.5,176.5C 163.984,170.412 164.651,163.912 164.5,157C 164.26,149.824 163.926,142.658 163.5,135.5 Z"/></g>
<g><path style="opacity:0.063" fill="#777779" d="M 226.5,156.5 C 227.473,156.987 228.473,157.487 229.5,158C 241.674,158.169 253.674,158.669 265.5,159.5C 253.162,159.667 240.829,159.5 228.5,159C 227.244,158.583 226.577,157.75 226.5,156.5 Z"/></g>
<g><path style="opacity:0.773" fill="#9f9fa2" d="M 286.5,161.5 C 291.122,161.156 295.455,161.823 299.5,163.5C 294.951,163.376 290.618,162.709 286.5,161.5 Z"/></g>
<g><path style="opacity:0.051" fill="#6c6c6c" d="M 299.5,163.5 C 303.122,163.322 306.456,163.989 309.5,165.5C 305.922,165.451 302.589,164.785 299.5,163.5 Z"/></g>
<g><path style="opacity:0.114" fill="#4f4f51" d="M 361.5,168.5 C 363.153,168.66 364.486,169.326 365.5,170.5C 363.62,170.771 362.287,170.104 361.5,168.5 Z"/></g>
<g><path style="opacity:0.631" fill="#8a8a8d" d="M 140.5,179.5 C 139.415,181.587 137.749,182.92 135.5,183.5C 136.585,181.413 138.251,180.08 140.5,179.5 Z"/></g>
<g><path style="opacity:0.188" fill="#4e4e51" d="M 364.5,182.5 C 366.027,182.427 367.027,183.094 367.5,184.5C 365.973,184.573 364.973,183.906 364.5,182.5 Z"/></g>
<g><path style="opacity:0.319" fill="#a8a8a8" d="M 370.5,188.5 C 381.833,187.167 393.167,187.167 404.5,188.5C 392.987,188.576 381.654,188.576 370.5,188.5 Z"/></g>
<g><path style="opacity:0.016" fill="#262626" d="M 350.5,195.5 C 349.082,197.308 347.082,197.975 344.5,197.5C 346.374,196.715 348.374,196.048 350.5,195.5 Z"/></g>
<g><path style="opacity:0.114" fill="#6b6b6e" d="M 271.5,197.5 C 268.997,198.371 266.33,199.037 263.5,199.5C 263.611,198.883 263.944,198.383 264.5,198C 266.81,197.503 269.143,197.337 271.5,197.5 Z"/></g>
<g><path style="opacity:0.351" fill="#727575" d="M 329.5,195.5 C 333.866,197.371 338.533,198.038 343.5,197.5C 339.354,198.647 335.02,198.814 330.5,198C 329.748,197.329 329.414,196.496 329.5,195.5 Z"/></g>
<g><path style="opacity:0.847" fill="#8a8a8b" d="M 187.5,198.5 C 185.815,200.818 183.481,201.818 180.5,201.5C 182.604,200.088 184.937,199.088 187.5,198.5 Z"/></g>
<g><path style="opacity:0.482" fill="#646366" d="M 178.5,202.5 C 178.027,203.906 177.027,204.573 175.5,204.5C 175.973,203.094 176.973,202.427 178.5,202.5 Z"/></g>
<g><path style="opacity:0.361" fill="#646567" d="M 175.5,204.5 C 175.027,205.906 174.027,206.573 172.5,206.5C 172.973,205.094 173.973,204.427 175.5,204.5 Z"/></g>
<g><path style="opacity:0.016" fill="#2e3131" d="M 284.5,207.5 C 285.568,206.566 286.901,206.232 288.5,206.5C 288.737,207.791 288.404,208.791 287.5,209.5C 287.179,207.952 286.179,207.285 284.5,207.5 Z"/></g>
<g><path style="opacity:0.989" fill="#d2d2d2" d="M 284.5,207.5 C 286.179,207.285 287.179,207.952 287.5,209.5C 285.714,214.24 283.048,218.407 279.5,222C 284.291,225.634 286.124,230.467 285,236.5C 279.367,231.942 273.867,227.275 268.5,222.5C 273.012,217.488 277.679,212.655 282.5,208C 283.094,207.536 283.761,207.369 284.5,207.5 Z"/></g>
<g><path style="opacity:0.165" fill="#797a7a" d="M 342.5,208.5 C 339.713,209.477 336.713,209.81 333.5,209.5C 333.784,211.415 333.451,213.081 332.5,214.5C 332.5,212.5 332.5,210.5 332.5,208.5C 335.833,208.5 339.167,208.5 342.5,208.5 Z"/></g>
<g><path style="opacity:0.302" fill="#5c5d5d" d="M 170.5,208.5 C 169.833,209.833 168.833,210.833 167.5,211.5C 167.5,209.5 168.5,208.5 170.5,208.5 Z"/></g>
<g><path style="opacity:0.78" fill="#939393" d="M 185.5,210.5 C 184.22,211.931 182.553,212.598 180.5,212.5C 181.552,210.744 183.219,210.077 185.5,210.5 Z"/></g>
<g><path style="opacity:0.991" fill="#dcdcdc" d="M 374.5,220.5 C 376.914,219.089 378.581,217.089 379.5,214.5C 380.816,212.683 382.316,211.017 384,209.5C 386.752,210.586 389.252,212.086 391.5,214C 393.007,214.837 393.507,216.004 393,217.5C 389.025,221.872 384.859,225.872 380.5,229.5C 377.015,227.847 374.348,225.347 372.5,222C 372.836,220.97 373.503,220.47 374.5,220.5 Z"/></g>
<g><path style="opacity:0.035" fill="#4a4b4b" d="M 123.5,214.5 C 123.573,216.027 122.906,217.027 121.5,217.5C 121.427,215.973 122.094,214.973 123.5,214.5 Z"/></g>
<g><path style="opacity:0.987" fill="#dbdbdb" d="M 298.5,214.5 C 303.105,216.471 307.438,218.971 311.5,222C 309.884,222.615 308.551,223.615 307.5,225C 302.511,225.499 297.511,225.666 292.5,225.5C 293.623,221.371 295.623,217.705 298.5,214.5 Z"/></g>
<g><path style="opacity:0.286" fill="#555555" d="M 163.5,215.5 C 163.573,217.027 162.906,218.027 161.5,218.5C 161.427,216.973 162.094,215.973 163.5,215.5 Z"/></g>
<g><path style="opacity:0.231" fill="#545454" d="M 107.5,217.5 C 107.573,219.027 106.906,220.027 105.5,220.5C 105.427,218.973 106.094,217.973 107.5,217.5 Z"/></g>
<g><path style="opacity:0.968" fill="#aaabac" d="M 161.5,218.5 C 162.167,219.5 162.833,220.5 163.5,221.5C 161.533,224.795 158.867,226.461 155.5,226.5C 157.171,223.508 159.171,220.841 161.5,218.5 Z"/></g>
<g><path style="opacity:0.349" fill="#595a5b" d="M 379.5,214.5 C 378.581,217.089 376.914,219.089 374.5,220.5C 375.419,217.911 377.086,215.911 379.5,214.5 Z"/></g>
<g><path style="opacity:0.176" fill="#696b6c" d="M 346.5,214.5 C 348.082,217.876 348.749,221.542 348.5,225.5C 347.313,222.054 346.646,218.387 346.5,214.5 Z"/></g>
<g><path style="opacity:0.988" fill="#ababab" d="M 105.5,221.5 C 104.757,225.112 103.09,228.112 100.5,230.5C 101.41,227.008 103.076,224.008 105.5,221.5 Z"/></g>
<g><path style="opacity:0.192" fill="#4f4f4f" d="M 316.5,235.5 C 316.573,237.027 315.906,238.027 314.5,238.5C 314.427,236.973 315.094,235.973 316.5,235.5 Z"/></g>
<g><path style="opacity:0.729" fill="#909194" d="M 399.5,236.5 C 398.266,238.398 398.599,240.065 400.5,241.5C 398.616,241.288 397.283,240.288 396.5,238.5C 397.005,237.081 398.005,236.415 399.5,236.5 Z"/></g>
<g><path style="opacity:0.129" fill="#3d3d3d" d="M 357.5,240.5 C 359.38,240.229 360.713,240.896 361.5,242.5C 359.847,242.34 358.514,241.674 357.5,240.5 Z"/></g>
<g><path style="opacity:0.051" fill="#6f6f79" d="M 252.5,241.5 C 254.048,241.821 254.715,242.821 254.5,244.5C 253.599,243.71 252.932,242.71 252.5,241.5 Z"/></g>
<g><path style="opacity:0.243" fill="#545454" d="M 402.5,242.5 C 404.027,242.427 405.027,243.094 405.5,244.5C 403.973,244.573 402.973,243.906 402.5,242.5 Z"/></g>
<g><path style="opacity:0.055" fill="#242626" d="M 366.5,244.5 C 368.38,244.229 369.713,244.896 370.5,246.5C 368.847,246.34 367.514,245.674 366.5,244.5 Z"/></g>
<g><path style="opacity:0.047" fill="#464646" d="M 396.5,244.5 C 397.995,244.989 399.329,245.655 400.5,246.5C 398.517,246.843 397.183,246.176 396.5,244.5 Z"/></g>
<g><path style="opacity:0.02" fill="#404040" d="M 180.5,239.5 C 180.56,238.957 180.893,238.624 181.5,238.5C 182.495,243.792 182.828,249.125 182.5,254.5C 181.833,249.5 181.167,244.5 180.5,239.5 Z"/></g>
<g><path style="opacity:0.035" fill="#444444" d="M 254.5,244.5 C 255.906,244.973 256.573,245.973 256.5,247.5C 255.094,247.027 254.427,246.027 254.5,244.5 Z"/></g>
<g><path style="opacity:0.592" fill="#7d7d7e" d="M 108.5,243.5 C 107.367,246.557 106.367,249.557 105.5,252.5C 104.925,248.845 105.925,245.845 108.5,243.5 Z"/></g>
<g><path style="opacity:0.035" fill="#474744" d="M 177.5,252.5 C 177.687,257.845 178.02,263.178 178.5,268.5C 176.572,263.233 176.239,257.9 177.5,252.5 Z"/></g>
<g><path style="opacity:0.518" fill="#6f6f6f" d="M 395.5,257.5 C 396.885,258.947 396.552,259.947 394.5,260.5C 395.11,259.609 395.443,258.609 395.5,257.5 Z"/></g>
<g><path style="opacity:0.951" fill="#a9a9a9" d="M 162.5,260.5 C 163.497,260.47 164.164,260.97 164.5,262C 166.909,269.649 170.243,276.815 174.5,283.5C 174.167,283.833 173.833,284.167 173.5,284.5C 165.952,278.083 162.285,270.083 162.5,260.5 Z"/></g>
<g><path style="opacity:0.29" fill="#57595a" d="M 382.5,269.5 C 382.027,270.906 381.027,271.573 379.5,271.5C 379.973,270.094 380.973,269.427 382.5,269.5 Z"/></g>
<g><path style="opacity:0.129" fill="#626265" d="M 178.5,269.5 C 180.074,271.102 180.741,273.102 180.5,275.5C 179.262,273.786 178.595,271.786 178.5,269.5 Z"/></g>
<g><path style="opacity:0.169" fill="#616163" d="M 186.5,270.5 C 187.906,270.973 188.573,271.973 188.5,273.5C 187.094,273.027 186.427,272.027 186.5,270.5 Z"/></g>
<g><path style="opacity:0.384" fill="#575757" d="M 379.5,271.5 C 379.027,272.906 378.027,273.573 376.5,273.5C 376.973,272.094 377.973,271.427 379.5,271.5 Z"/></g>
<g><path style="opacity:0.051" fill="#2c2c2c" d="M 203.5,271.5 C 204.674,272.514 205.34,273.847 205.5,275.5C 203.896,274.713 203.229,273.38 203.5,271.5 Z"/></g>
<g><path style="opacity:0.427" fill="#5c5c5c" d="M 367.5,278.5 C 367.027,279.906 366.027,280.573 364.5,280.5C 364.973,279.094 365.973,278.427 367.5,278.5 Z"/></g>
<g><path style="opacity:0.631" fill="#6a6a6c" d="M 182.5,280.5 C 184.048,280.821 184.715,281.821 184.5,283.5C 183.599,282.71 182.932,281.71 182.5,280.5 Z"/></g>
<g><path style="opacity:0.765" fill="#7f807f" d="M 256.5,281.5 C 254.22,283.223 251.553,283.889 248.5,283.5C 250.961,282.469 253.627,281.802 256.5,281.5 Z"/></g>
<g><path style="opacity:0.004" fill="#464545" d="M 199.5,285.5 C 199.5,285.167 199.5,284.833 199.5,284.5C 201.144,284.81 202.144,285.81 202.5,287.5C 201.833,287.5 201.5,287.833 201.5,288.5C 200.5,288.167 199.833,287.5 199.5,286.5C 200.833,286.167 200.833,285.833 199.5,285.5 Z"/></g>
<g><path style="opacity:0.118" fill="#424646" d="M 376.5,287.5 C 375.71,288.401 374.71,289.068 373.5,289.5C 373.821,287.952 374.821,287.285 376.5,287.5 Z"/></g>
<g><path style="opacity:0.471" fill="#6e6e6f" d="M 94.5,287.5 C 96.1628,289.438 96.8294,291.772 96.5,294.5C 95.3882,292.401 94.7215,290.067 94.5,287.5 Z"/></g>
<g><path style="opacity:0.42" fill="#6e6e6e" d="M 187.5,288.5 C 188.885,289.947 188.552,290.947 186.5,291.5C 187.11,290.609 187.443,289.609 187.5,288.5 Z"/></g>
<g><path style="opacity:0.678" fill="#878789" d="M 215.5,289.5 C 218.278,291.758 221.278,292.091 224.5,290.5C 223.376,291.809 221.876,292.475 220,292.5C 217.648,292.586 216.148,291.586 215.5,289.5 Z"/></g>
<g><path style="opacity:0.073" fill="#616161" d="M 272.5,291.5 C 274.167,292.167 275.833,292.833 277.5,293.5C 274.393,293.649 271.393,293.149 268.5,292C 269.793,291.51 271.127,291.343 272.5,291.5 Z"/></g>
<g><path style="opacity:0.961" fill="#818588" d="M 119.5,298.5 C 119.598,295.752 118.598,295.086 116.5,296.5C 118.097,294.236 120.097,292.236 122.5,290.5C 122.718,293.437 121.718,296.104 119.5,298.5 Z"/></g>
<g><path style="opacity:1" fill="#858e82" d="M 96.5,295.5 C 99.295,296.358 99.9617,298.358 98.5,301.5C 97.5418,299.698 96.8751,297.698 96.5,295.5 Z"/></g>
<g><path style="opacity:0.894" fill="#8a8a8a" d="M 355.5,297.5 C 353.955,298.64 352.288,299.64 350.5,300.5C 350.5,299.5 350.5,298.5 350.5,297.5C 352.167,297.5 353.833,297.5 355.5,297.5 Z"/></g>
<g><path style="opacity:0.49" fill="#626161" d="M 116.5,296.5 C 115.196,299.569 113.196,300.569 110.5,299.5C 112.5,298.5 114.5,297.5 116.5,296.5 Z"/></g>
<g><path style="opacity:0.196" fill="#4c4c4c" d="M 119.5,298.5 C 119.34,300.153 118.674,301.486 117.5,302.5C 117.229,300.62 117.896,299.287 119.5,298.5 Z"/></g>
<g><path style="opacity:0.443" fill="#737373" d="M 337.5,295.5 C 338.525,295.897 338.692,296.563 338,297.5C 336.549,299.464 334.716,300.797 332.5,301.5C 334.167,299.5 335.833,297.5 337.5,295.5 Z"/></g>
<g><path style="opacity:0.196" fill="#5f5f5f" d="M 117.5,302.5 C 117.573,304.027 116.906,305.027 115.5,305.5C 115.427,303.973 116.094,302.973 117.5,302.5 Z"/></g>
<g><path style="opacity:0.251" fill="#939393" d="M 304.5,310.5 C 299.874,312.782 294.874,314.116 289.5,314.5C 294.255,312.642 299.255,311.309 304.5,310.5 Z"/></g>
<g><path style="opacity:0.212" fill="#7c7c7d" d="M 289.5,314.5 C 285.684,315.482 281.684,316.149 277.5,316.5C 281.183,314.75 285.183,314.083 289.5,314.5 Z"/></g>
<g><path style="opacity:0.416" fill="#595c5c" d="M 308.5,316.5 C 308.027,317.906 307.027,318.573 305.5,318.5C 305.973,317.094 306.973,316.427 308.5,316.5 Z"/></g>
<g><path style="opacity:0.086" fill="#646465" d="M 326.5,318.5 C 325.71,319.401 324.71,320.068 323.5,320.5C 323.821,318.952 324.821,318.285 326.5,318.5 Z"/></g>
<g><path style="opacity:0.353" fill="#5e5e5e" d="M 146.5,318.5 C 146.027,319.906 145.027,320.573 143.5,320.5C 143.973,319.094 144.973,318.427 146.5,318.5 Z"/></g>
<g><path style="opacity:0.196" fill="#575759" d="M 297.5,324.5 C 299.104,325.287 299.771,326.62 299.5,328.5C 298.326,327.486 297.66,326.153 297.5,324.5 Z"/></g>
<g><path style="opacity:0.286" fill="#6c6c6c" d="M 107.5,324.5 C 107.065,327.157 106.065,329.491 104.5,331.5C 104.552,328.654 105.552,326.32 107.5,324.5 Z"/></g>
<g><path style="opacity:0.498" fill="#666666" d="M 131.5,329.5 C 130.738,331.262 129.404,332.262 127.5,332.5C 128.262,330.738 129.596,329.738 131.5,329.5 Z"/></g>
<g><path style="opacity:0.714" fill="#848586" d="M 210.5,333.5 C 208.485,334.924 206.152,335.59 203.5,335.5C 205.515,334.076 207.848,333.41 210.5,333.5 Z"/></g>
<g><path style="opacity:0.294" fill="#6e6f70" d="M 124.5,334.5 C 123.738,336.262 122.404,337.262 120.5,337.5C 121.262,335.738 122.596,334.738 124.5,334.5 Z"/></g>
<g><path style="opacity:0.094" fill="#454545" d="M 92.5,334.5 C 92.7709,336.38 92.1042,337.713 90.5,338.5C 90.6596,336.847 91.3263,335.514 92.5,334.5 Z"/></g>
<g><path style="opacity:0.118" fill="#555555" d="M 199.5,336.5 C 198.713,338.104 197.38,338.771 195.5,338.5C 196.514,337.326 197.847,336.66 199.5,336.5 Z"/></g>
<g><path style="opacity:0.012" fill="#515153" d="M 264.5,336.5 C 266.027,336.427 267.027,337.094 267.5,338.5C 265.973,338.573 264.973,337.906 264.5,336.5 Z"/></g>
<g><path style="opacity:0.431" fill="#626263" d="M 195.5,338.5 C 195.027,339.906 194.027,340.573 192.5,340.5C 192.973,339.094 193.973,338.427 195.5,338.5 Z"/></g>
<g><path style="opacity:0.776" fill="#7c7f7f" d="M 247.5,340.5 C 250.313,340.025 252.313,341.025 253.5,343.5C 251.456,342.492 249.456,341.492 247.5,340.5 Z"/></g>
<g><path style="opacity:0.187" fill="#929393" d="M 301.5,340.5 C 302.822,343.768 303.489,347.435 303.5,351.5C 303.499,355.349 303.165,359.016 302.5,362.5C 302.764,355.11 302.43,347.777 301.5,340.5 Z"/></g>
<g><path style="opacity:0.533" fill="#858686" d="M 199.5,348.5 C 198.935,350.952 198.268,353.285 197.5,355.5C 196.99,352.612 197.656,350.279 199.5,348.5 Z"/></g>
<g><path style="opacity:0.012" fill="#373839" d="M 265.5,350.5 C 266.5,350.833 267.167,351.5 267.5,352.5C 266.167,352.5 265.5,351.833 265.5,350.5 Z"/></g>
<g><path style="opacity:0.298" fill="#6c6c6d" d="M 93.5,363.5 C 92.7095,364.401 91.7095,365.068 90.5,365.5C 90.8212,363.952 91.8212,363.285 93.5,363.5 Z"/></g>
<g><path style="opacity:0.278" fill="#636668" d="M 82.5,363.5 C 82.1568,365.483 82.8235,366.817 84.5,367.5C 83.791,368.404 82.791,368.737 81.5,368.5C 81.2155,366.585 81.5489,364.919 82.5,363.5 Z"/></g>
<g><path style="opacity:0.008" fill="#303031" d="M 89.5,365.5 C 88.4863,366.674 87.153,367.34 85.5,367.5C 86.287,365.896 87.6203,365.229 89.5,365.5 Z"/></g>
<g><path style="opacity:0.047" fill="#323b31" d="M 175.5,367.5 C 176.906,367.973 177.573,368.973 177.5,370.5C 176.094,370.027 175.427,369.027 175.5,367.5 Z"/></g>
<g><path style="opacity:0.122" fill="#48484c" d="M 168.5,376.5 C 170.104,377.287 170.771,378.62 170.5,380.5C 169.326,379.486 168.66,378.153 168.5,376.5 Z"/></g>
<g><path style="opacity:0.114" fill="#4b4b4b" d="M 170.5,380.5 C 172.104,381.287 172.771,382.62 172.5,384.5C 171.326,383.486 170.66,382.153 170.5,380.5 Z"/></g>
<g><path style="opacity:0.992" fill="#babcbc" d="M 310.5,375.5 C 310.104,380.947 308.104,385.614 304.5,389.5C 303.476,388.148 302.476,386.815 301.5,385.5C 302.94,384.637 304.274,384.637 305.5,385.5C 306.731,384.349 306.731,383.183 305.5,382C 306.126,381.25 306.626,380.416 307,379.5C 307.333,379.833 307.667,380.167 308,380.5C 308.374,378.509 309.207,376.842 310.5,375.5 Z"/></g>
<g><path style="opacity:0.133" fill="#5f5f63" d="M 172.5,384.5 C 173.906,384.973 174.573,385.973 174.5,387.5C 173.094,387.027 172.427,386.027 172.5,384.5 Z"/></g>
<g><path style="opacity:0.09" fill="#606060" d="M 176.5,393.5 C 178.104,394.287 178.771,395.62 178.5,397.5C 177.326,396.486 176.66,395.153 176.5,393.5 Z"/></g>
</svg>
