<?xml version="1.0" encoding="UTF-8"?>
<svg version="1.1" viewBox="0 0 1600 1600" width="100" height="100" xmlns="http://www.w3.org/2000/svg">
<path transform="translate(382,510)" d="m0 0h46l98 1 22 1 11 2 8 4 5 7 1 5v11l-1 14-4 11-5 5-5 2-5 1-165 1h-101l1 9-1 951h991l33-1-1-83v-817l1-59h-246l-18-1-10-2-6-5-6-12-1-4v-13l3-11 6-9 7-4 3-1 14-1 68-1h246l5 3v157l-1 929h-1150l-1-10-1-85v-987l2-7z" fill="#FBFBFB"/>
<path transform="translate(798,21)" d="m0 0 6 3 10 9 15 14 10 9 19 19 7 6v2l4 2 59 59 7 8 7 6v2h2l7 8 12 11 107 107 9 11 7 10 2 4v13l-6 12-7 9-9 6-5 2-8-1-12-5-11-8-17-16-115-115-8-7-18-18-7-8-9-8-5-6-6-5-7-8-5-4-1 105-1 678-1 108-2 8-5 5-10 3-9 1h-13l-10-2-6-3-5-10-1-4-1-19-1-121-1-748-9 7-1 2h-2v2h-2l-2 4-148 148h-2l-2 4-8 8-8 7-9 9-14 11-9 4-8 1-10-3-8-5-8-9-5-9-1-8 3-11 8-11 10-11 1-2h2v-2h2l2-4 124-124h2l2-4 100-100h2v-2l8-7 15-14z" fill="#FEFEFE"/>
</svg>
